<svg width="235" height="150" viewBox="0 0 235 150" fill="none" xmlns="http://www.w3.org/2000/svg">
<path opacity="0.5" d="M201.588 149.5C201.588 149.5 218.237 153.447 226.434 135.559C237.067 112.351 222.143 90.3063 196.399 88.7178C159.269 86.4283 179.847 27.1446 121.256 43.2324C104.78 47.7549 68.9462 24.4081 47.8518 63.967C44.265 70.6937 33.5426 70.3655 19.2565 81.839C-5.94313 102.082 3.12872 149.718 24.3566 149.931C45.5846 150.145 201.588 149.5 201.588 149.5Z" fill="#D9E9FE"/>
<path d="M187.519 132.655C187.519 132.655 211.83 101.962 226.508 93.8839C226.508 93.8839 208.701 89.7277 198.935 95.9651C189.169 102.203 193.331 117.085 188.38 114.012C183.428 110.938 189.328 99.4024 189.328 99.4024C189.328 99.4024 177.241 103.499 178.692 109.423C180.144 115.347 186.416 122.599 181.825 121.267C177.233 119.936 175.722 111.836 175.722 111.836C175.722 111.836 166.582 133.709 187.519 132.655Z" fill="#6D89D0"/>
<path d="M186.096 132.739C181.097 132.739 177.56 131.305 175.57 128.474C174.342 126.727 173.077 123.464 174.011 117.841C174.357 115.779 174.915 113.758 175.676 111.81L175.741 111.652L175.773 111.82C175.788 111.901 177.334 119.898 181.839 121.212C182.614 121.438 183.092 121.425 183.3 121.172C183.784 120.583 182.788 118.658 181.631 116.427C180.497 114.239 179.213 111.761 178.642 109.432C178.044 106.984 179.702 104.464 183.44 102.143C186.253 100.396 189.282 99.3605 189.312 99.3502L189.431 99.3103L189.374 99.4219C189.36 99.4506 187.892 102.34 187.046 105.567C186.27 108.531 185.876 112.396 188.406 113.966C189.037 114.357 189.533 114.464 189.924 114.29C190.799 113.902 191.133 112.088 191.554 109.792C192.315 105.652 193.464 99.3963 198.908 95.9191C203.964 92.6897 211.203 92.2944 216.386 92.531C219.794 92.6877 223.184 93.1228 226.521 93.8317L226.651 93.8614L226.534 93.926C218.959 98.0955 208.766 108.41 201.549 116.33C193.728 124.913 187.62 132.607 187.56 132.684L187.546 132.702H187.522C187.034 132.726 186.559 132.739 186.096 132.739ZM175.706 112.007C174.984 113.902 174.45 115.862 174.112 117.861C173.184 123.448 174.438 126.684 175.654 128.41C177.804 131.471 181.786 132.878 187.493 132.596C187.829 132.172 193.833 124.637 201.472 116.255C208.656 108.368 218.79 98.113 226.366 93.8963C223.076 93.2093 219.737 92.785 216.38 92.6273C211.212 92.3917 203.993 92.784 198.963 95.999C193.557 99.4526 192.411 105.683 191.655 109.804C191.21 112.222 190.89 113.968 189.965 114.379C189.542 114.565 189.015 114.457 188.353 114.047C186.306 112.777 185.821 109.832 186.948 105.532C187.701 102.657 188.947 100.051 189.226 99.4834C188.64 99.6882 185.98 100.68 183.494 102.225C180.917 103.826 178.002 106.37 178.744 109.402C179.312 111.719 180.593 114.192 181.724 116.375C182.944 118.73 183.908 120.591 183.381 121.233C183.145 121.52 182.632 121.54 181.813 121.305C180.494 120.92 178.59 119.698 177.009 116.059C176.449 114.754 176.013 113.399 175.706 112.012V112.007Z" fill="#C1D6D5"/>
<path d="M226.507 93.8838C226.507 93.8838 228.788 108.954 223.406 113.401C218.025 117.848 211.802 114.724 210.648 118.383C209.494 122.041 219.974 122.644 223.935 119.768C223.935 119.768 222.092 126.276 217.158 127.654C212.223 129.033 201.404 125.356 203.112 128.131C204.821 130.907 215.547 130.943 215.547 130.943C215.547 130.943 205.386 147.193 194.971 142.341C184.556 137.49 187.518 132.654 187.518 132.654C187.518 132.654 205.755 100.421 226.507 93.8838Z" fill="#3A4ACE"/>
<path d="M198.996 143.397C197.58 143.396 196.182 143.081 194.902 142.475C190.517 140.432 187.918 138.146 187.176 135.681C186.622 133.837 187.351 132.62 187.381 132.569C187.424 132.493 192.025 124.403 199.105 115.619C203.264 110.458 207.452 106.071 211.554 102.578C216.688 98.2057 221.702 95.2294 226.455 93.732L226.626 93.6787L226.653 93.8559C227.017 96.5458 227.174 99.2598 227.123 101.974C226.985 107.758 225.766 111.64 223.499 113.515C220.703 115.825 217.691 116.118 215.271 116.354C212.978 116.576 211.321 116.738 210.788 118.424C210.566 119.13 210.807 119.744 211.505 120.246C213.835 121.926 220.733 121.894 223.84 119.637L224.198 119.377L224.077 119.803C223.697 121.015 223.176 122.178 222.524 123.267C221.527 124.933 219.793 127.071 217.195 127.797C214.84 128.455 211.143 127.975 208.171 127.592C205.85 127.285 203.45 126.978 203.116 127.49C203.041 127.606 203.082 127.797 203.238 128.045C204.883 130.717 215.436 130.784 215.543 130.784H215.819L215.673 131.018C215.647 131.059 213.076 135.139 209.262 138.57C207.016 140.59 204.783 141.995 202.624 142.746C201.46 143.165 200.234 143.385 198.996 143.397ZM226.38 94.0853C221.718 95.5878 216.802 98.5243 211.762 102.816C207.674 106.298 203.5 110.668 199.353 115.814C192.289 124.578 187.697 132.65 187.651 132.73C187.642 132.746 186.959 133.901 187.477 135.608C187.972 137.241 189.686 139.705 195.035 142.202C197.373 143.291 199.893 143.379 202.526 142.463C204.645 141.727 206.842 140.343 209.057 138.352C212.32 135.417 214.666 132.002 215.267 131.094C213.527 131.068 204.578 130.805 202.983 128.211C202.76 127.85 202.72 127.552 202.865 127.328C203.283 126.681 205.078 126.881 208.217 127.288C211.161 127.671 214.824 128.148 217.118 127.506C218.498 127.12 220.512 126.046 222.266 123.115C222.827 122.173 223.291 121.178 223.653 120.144C222.185 121.048 219.911 121.633 217.448 121.726C214.819 121.828 212.534 121.37 211.332 120.505C210.526 119.924 210.24 119.173 210.503 118.34C211.096 116.46 212.929 116.282 215.249 116.057C217.628 115.825 220.587 115.537 223.31 113.291C226.033 111.045 226.729 105.895 226.823 101.984C226.872 99.3438 226.724 96.7036 226.38 94.0853Z" fill="#DAEAEE"/>
<path d="M137.436 61.5166C139.371 61.5166 141.287 61.8979 143.075 62.6388C144.862 63.3797 146.487 64.4656 147.855 65.8346C149.223 67.2036 150.309 68.8288 151.049 70.6174C151.79 72.4061 152.171 74.3231 152.171 76.2591V144.062H122.332V76.6299C122.332 72.622 123.923 68.7781 126.756 65.9439C129.588 63.1097 133.43 61.5171 137.436 61.5166Z" fill="#D9E9FE"/>
<path d="M152.326 144.209H122.178V76.6292C122.178 68.2112 129.023 61.3623 137.437 61.3623C145.647 61.3623 152.326 68.0443 152.326 76.2585V144.209ZM122.485 143.902H152.019V76.2585C152.019 68.2143 145.477 61.6696 137.437 61.6696C129.193 61.6696 122.485 68.3802 122.485 76.6292V143.902Z" fill="#DAEAEE"/>
<path d="M135.035 76.6533H122.33V79.0787H135.035V76.6533Z" fill="white"/>
<path d="M142.851 76.6953H137.752V79.1207H142.851V76.6953Z" fill="white"/>
<path d="M150.122 76.6953H145.023V79.1207H150.122V76.6953Z" fill="white"/>
<path d="M135.035 81.002H122.33V83.4273H135.035V81.002Z" fill="white"/>
<path d="M142.851 81.0439H137.752V83.4693H142.851V81.0439Z" fill="white"/>
<path d="M150.122 81.0439H145.023V83.4693H150.122V81.0439Z" fill="white"/>
<path d="M135.035 85.3506H122.33V87.7759H135.035V85.3506Z" fill="white"/>
<path d="M142.851 85.3926H137.752V87.8179H142.851V85.3926Z" fill="white"/>
<path d="M150.122 85.3926H145.023V87.8179H150.122V85.3926Z" fill="white"/>
<path d="M135.035 89.6992H122.33V92.1246H135.035V89.6992Z" fill="white"/>
<path d="M142.851 89.7402H137.752V92.1656H142.851V89.7402Z" fill="white"/>
<path d="M150.122 89.7402H145.023V92.1656H150.122V89.7402Z" fill="white"/>
<path d="M135.035 94.4668H122.33V96.8921H135.035V94.4668Z" fill="white"/>
<path d="M142.851 94.5088H137.752V96.9341H142.851V94.5088Z" fill="white"/>
<path d="M150.122 94.5088H145.023V96.9341H150.122V94.5088Z" fill="white"/>
<path d="M135.035 98.8154H122.33V101.241H135.035V98.8154Z" fill="white"/>
<path d="M142.851 98.8574H137.752V101.283H142.851V98.8574Z" fill="white"/>
<path d="M150.122 98.8574H145.023V101.283H150.122V98.8574Z" fill="white"/>
<path d="M135.035 103.164H122.33V105.589H135.035V103.164Z" fill="white"/>
<path d="M142.851 103.206H137.752V105.631H142.851V103.206Z" fill="white"/>
<path d="M150.122 103.206H145.023V105.631H150.122V103.206Z" fill="white"/>
<path d="M135.035 107.513H122.33V109.938H135.035V107.513Z" fill="white"/>
<path d="M142.851 107.555H137.752V109.98H142.851V107.555Z" fill="white"/>
<path d="M150.122 107.555H145.023V109.98H150.122V107.555Z" fill="white"/>
<path d="M135.035 112.279H122.33V114.705H135.035V112.279Z" fill="white"/>
<path d="M142.851 112.321H137.752V114.747H142.851V112.321Z" fill="white"/>
<path d="M150.122 112.321H145.023V114.747H150.122V112.321Z" fill="white"/>
<path d="M135.035 116.628H122.33V119.053H135.035V116.628Z" fill="white"/>
<path d="M142.851 116.67H137.752V119.095H142.851V116.67Z" fill="white"/>
<path d="M150.122 116.67H145.023V119.095H150.122V116.67Z" fill="white"/>
<path d="M135.035 120.978H122.33V123.403H135.035V120.978Z" fill="white"/>
<path d="M142.851 121.02H137.752V123.445H142.851V121.02Z" fill="white"/>
<path d="M150.122 121.02H145.023V123.445H150.122V121.02Z" fill="white"/>
<path d="M135.035 125.326H122.33V127.752H135.035V125.326Z" fill="white"/>
<path d="M142.851 125.368H137.752V127.794H142.851V125.368Z" fill="white"/>
<path d="M150.122 125.368H145.023V127.794H150.122V125.368Z" fill="white"/>
<path d="M135.035 130.093H122.33V132.518H135.035V130.093Z" fill="white"/>
<path d="M142.851 130.135H137.752V132.56H142.851V130.135Z" fill="white"/>
<path d="M150.122 130.135H145.023V132.56H150.122V130.135Z" fill="white"/>
<path d="M135.035 134.441H122.33V136.867H135.035V134.441Z" fill="white"/>
<path d="M142.851 134.483H137.752V136.909H142.851V134.483Z" fill="white"/>
<path d="M150.122 134.483H145.023V136.909H150.122V134.483Z" fill="white"/>
<path d="M135.035 138.79H122.33V141.215H135.035V138.79Z" fill="white"/>
<path d="M142.851 138.832H137.752V141.257H142.851V138.832Z" fill="white"/>
<path d="M150.122 138.832H145.023V141.257H150.122V138.832Z" fill="white"/>
<path d="M122.309 28.883V134.504C122.309 137.164 121.253 139.715 119.373 141.596C117.493 143.477 114.943 144.534 112.284 144.534H70.1579C67.4992 144.534 64.9494 143.477 63.0694 141.596C61.1894 139.715 60.1331 137.164 60.1328 134.504V28.883C60.1317 27.5652 60.3903 26.2601 60.8936 25.0423C61.3969 23.8245 62.1352 22.7179 63.0663 21.7857C63.9973 20.8535 65.1028 20.1141 66.3196 19.6096C67.5365 19.1052 68.8407 18.8456 70.1579 18.8457H112.284C113.601 18.8456 114.906 19.1052 116.122 19.6096C117.339 20.1141 118.445 20.8535 119.376 21.7857C120.307 22.7179 121.045 23.8245 121.548 25.0423C122.052 26.2601 122.31 27.5652 122.309 28.883Z" fill="white"/>
<path d="M112.283 144.585H70.1563C67.4849 144.582 64.9237 143.519 63.0346 141.629C61.1456 139.739 60.0831 137.177 60.0801 134.504V28.8831C60.0831 26.2103 61.1456 23.6478 63.0346 21.7578C64.9237 19.8678 67.4849 18.8047 70.1563 18.8018H112.283C114.954 18.8047 117.515 19.8678 119.404 21.7578C121.293 23.6478 122.356 26.2103 122.359 28.8831V134.504C122.356 137.177 121.293 139.739 119.404 141.629C117.515 143.519 114.954 144.582 112.283 144.585ZM70.1563 18.9001C67.5113 18.9031 64.9755 19.9559 63.1056 21.8276C61.2356 23.6992 60.1843 26.2367 60.1824 28.8831V134.504C60.1854 137.15 61.2372 139.686 63.107 141.557C64.9768 143.428 67.512 144.48 70.1563 144.483H112.283C114.927 144.48 117.462 143.428 119.332 141.557C121.202 139.686 122.253 137.15 122.256 134.504V28.8831C122.253 26.2374 121.202 23.701 119.332 21.8302C117.462 19.9595 114.927 18.9072 112.283 18.9042L70.1563 18.9001Z" fill="#5B71A8"/>
<path d="M110.981 20.9053H71.4621C66.341 20.9053 62.1895 25.0589 62.1895 30.1826V133.2C62.1895 138.324 66.341 142.477 71.4621 142.477H110.981C116.102 142.477 120.254 138.324 120.254 133.2V30.1826C120.254 25.0589 116.102 20.9053 110.981 20.9053Z" fill="#3A4ACE"/>
<path opacity="0.19" d="M104.929 53.9766C104.929 53.9766 104.724 54.6935 105.953 54.6935L106.976 56.4347C106.976 56.4347 106.464 57.254 107.181 57.971C107.612 58.4025 108.093 58.7807 108.614 59.0976C108.614 59.0976 108.113 73.1048 122.332 77.5232V71.3882L109.843 57.6637L107.693 55.0008L104.929 53.9766Z" fill="url(#paint0_linear)"/>
<path d="M31.0176 95.308V66.0616C31.0176 64.9945 31.2277 63.9379 31.6358 62.952C32.044 61.9662 32.6423 61.0704 33.3965 60.3159C34.1507 59.5614 35.0461 58.963 36.0315 58.5547C37.0169 58.1465 38.0731 57.9364 39.1396 57.9365H94.3426C95.4091 57.9364 96.4651 58.1465 97.4505 58.5547C98.4358 58.963 99.3311 59.5615 100.085 60.316C100.839 61.0705 101.438 61.9663 101.846 62.9521C102.254 63.938 102.464 64.9946 102.464 66.0616V95.308C102.463 96.3749 102.253 97.4313 101.845 98.4169C101.437 99.4025 100.839 100.298 100.085 101.052C99.3304 101.807 98.4352 102.405 97.45 102.813C96.4648 103.221 95.4089 103.431 94.3426 103.431H39.1376C36.9842 103.431 34.919 102.575 33.3962 101.052C31.8735 99.5286 31.0178 97.4625 31.0176 95.308Z" fill="#FFBE56"/>
<path d="M94.3419 103.585H39.1369C36.9434 103.582 34.8406 102.71 33.2893 101.158C31.738 99.6065 30.8648 97.5029 30.8613 95.3083V66.0619C30.8638 63.8668 31.7365 61.7624 33.2879 60.2103C34.8394 58.6583 36.9429 57.7854 39.1369 57.7832H94.3419C96.5357 57.7856 98.6389 58.6586 100.19 60.2107C101.741 61.7627 102.614 63.867 102.616 66.0619V95.3083C102.613 97.5027 101.74 99.6062 100.189 101.158C98.6378 102.709 96.5352 103.582 94.3419 103.585ZM31.1684 95.3073C31.1717 97.4206 32.0123 99.4463 33.5061 100.94C34.9998 102.434 37.0247 103.275 39.1369 103.278H94.3419C96.4539 103.275 98.4786 102.434 99.9721 100.94C101.466 99.446 102.306 97.4204 102.309 95.3073V66.0619C102.307 63.9485 101.467 61.9224 99.973 60.4279C98.4794 58.9335 96.4542 58.0929 94.3419 58.0905H39.1369C37.0245 58.0929 34.9992 58.9335 33.5054 60.4279C32.0116 61.9223 31.1711 63.9484 31.1684 66.0619V95.3083V95.3073Z" fill="white"/>
<path d="M31.0176 95.3082L66.7446 80.6865L102.472 95.3082C102.472 96.3751 102.261 97.4315 101.853 98.4171C101.445 99.4027 100.847 100.298 100.093 101.052C99.3386 101.807 98.4434 102.405 97.4582 102.813C96.4729 103.221 95.417 103.431 94.3507 103.431H39.1376C36.9842 103.431 34.919 102.575 33.3962 101.052C31.8735 99.5288 31.0178 97.4627 31.0176 95.3082Z" fill="#FAC96A"/>
<path d="M94.3419 103.71H94.342C96.5694 103.708 98.7053 102.823 100.281 101.247C101.857 99.6721 102.743 97.5358 102.747 95.3073V95.3071V95.2047V95.1208L102.669 95.089L66.8509 80.4289L66.8497 80.4284L66.7925 80.4043L66.7447 80.3842L66.6966 80.4038L30.9107 95.0509L30.9102 95.0511L30.8145 95.0898L30.7363 95.1214V95.2057L30.7363 95.3081L30.7363 95.3083C30.7399 97.536 31.6262 99.6713 33.2009 101.246C34.7756 102.821 36.9102 103.707 39.1367 103.71H39.1369H94.3419ZM33.6307 100.888C32.1836 99.4588 31.3475 97.5251 31.2961 95.4938L66.744 80.9875L102.183 95.4938C102.13 97.5245 101.293 99.4574 99.8464 100.886C98.3794 102.334 96.4026 103.148 94.3416 103.153H39.1371C37.0757 103.15 35.0979 102.336 33.6307 100.888Z" fill="white" stroke="white" stroke-width="0.25"/>
<path d="M31.0176 70.436V66.0616C31.0176 64.9945 31.2277 63.9379 31.6358 62.952C32.044 61.9662 32.6423 61.0704 33.3965 60.3159C34.1507 59.5614 35.0461 58.963 36.0315 58.5547C37.0169 58.1465 38.0731 57.9364 39.1396 57.9365H94.3426C95.4091 57.9364 96.4651 58.1465 97.4505 58.5547C98.4358 58.963 99.3311 59.5615 100.085 60.316C100.839 61.0705 101.438 61.9663 101.846 62.9521C102.254 63.938 102.464 64.9946 102.464 66.0616V70.4319L66.847 87.2864L31.0176 70.436Z" fill="#FAC96A"/>
<path d="M94.3418 58.2155L39.137 58.2155C37.0577 58.2179 35.0642 59.0453 33.5938 60.5163C32.1234 61.9872 31.2961 63.9816 31.2934 66.062V70.2597L66.8401 86.9785L102.184 70.2599V66.0621M94.3418 58.2155C94.3418 58.2155 94.3418 58.2155 94.3417 58.2155L94.3419 58.0905V58.2155H94.3418ZM94.3418 58.2155C96.421 58.2179 98.4144 59.0453 99.8846 60.5163C101.355 61.9873 102.182 63.9817 102.184 66.0621M102.184 66.0621L102.309 66.0619M102.184 66.0621V66.0619H102.309M102.309 66.0619V70.339V66.0619ZM66.7933 87.5689L66.8466 87.5939L66.8998 87.5687L102.583 70.6845L102.584 70.6841L102.671 70.6421L102.741 70.608V70.5295V66.0619V66.0618C102.739 63.8338 101.853 61.6978 100.279 60.1223C98.7039 58.5469 96.569 57.6607 94.342 57.6582H94.3419L39.1369 57.6582L39.1368 57.6582C36.9097 57.6604 34.7744 58.5465 33.1995 60.122C31.6247 61.6974 30.7388 63.8336 30.7363 66.0618V66.0619V70.5347V70.614L30.8081 70.6478L66.7277 87.5381L66.7278 87.5381L66.7933 87.5689Z" fill="white" stroke="white" stroke-width="0.25"/>
<path d="M107.119 55.1631L106.451 56.3307C106.451 56.3307 107.27 57.6366 107.995 57.4153C108.72 57.1941 108.018 55.3905 108.018 55.3905L107.119 55.1631Z" fill="url(#paint1_linear)"/>
<path d="M134.506 66.0537L130.542 72.1427C129.547 72.3066 128.541 72.3929 127.533 72.4008C129.334 70.5162 129.241 66.5351 129.241 66.5351C132.415 66.6099 134.506 66.0537 134.506 66.0537Z" fill="#F2564B"/>
<path d="M127.532 72.4003C126.862 72.4045 126.192 72.3703 125.526 72.2979C113.809 71.0504 108.566 58.4443 108.566 58.4443L110.447 57.2686C116.212 64.0714 122.9 66.0512 127.76 66.4527C128.272 66.4957 128.769 66.5203 129.24 66.5315C129.24 66.5346 129.333 70.5157 127.532 72.4003Z" fill="url(#paint2_linear)"/>
<path opacity="0.19" d="M111.059 62.8174C111.059 62.8174 117.573 64.2585 118.621 70.0268C118.621 70.0268 112.584 66.4318 111.059 62.8174Z" fill="url(#paint3_linear)"/>
<path d="M133.868 118.593C133.868 118.593 144.105 132.442 141.165 139.166L139.61 140.018L130.549 126.765L132.856 121.337L133.868 118.593Z" fill="#293EB7"/>
<path d="M141.168 139.166C141.168 139.166 142.574 139.935 142.199 140.447C141.824 140.959 137.942 144.929 137.942 144.929C137.942 144.929 136.908 144.007 138.315 143.072C139.722 142.137 139.613 140.018 139.613 140.018L141.168 139.166Z" fill="white"/>
<path d="M137.942 145L137.905 144.967C137.888 144.952 137.487 144.587 137.524 144.074C137.552 143.697 137.806 143.346 138.283 143.029C139.649 142.123 139.56 140.042 139.559 140.021V139.988L141.166 139.107L141.191 139.121C141.232 139.143 142.192 139.674 142.302 140.165C142.314 140.218 142.315 140.273 142.304 140.326C142.293 140.379 142.271 140.429 142.239 140.473C141.866 140.985 138.135 144.798 137.976 144.96L137.942 145ZM139.662 140.048C139.669 140.321 139.662 142.239 138.34 143.114C137.891 143.412 137.652 143.737 137.623 144.08C137.596 144.459 137.842 144.758 137.93 144.856C138.324 144.453 141.798 140.895 142.147 140.417C142.171 140.385 142.188 140.347 142.195 140.308C142.203 140.268 142.202 140.227 142.192 140.188C142.102 139.778 141.306 139.31 141.156 139.224L139.662 140.048Z" fill="#5B71A8"/>
<path d="M140.463 97.8124V97.837C140.367 98.4228 140.201 98.995 139.969 99.5413C139.682 100.219 139.343 101.078 138.972 102.033C136.901 107.402 133.87 116.116 133.87 116.116C133.87 116.116 137.58 129.328 131.544 142.746H128.4C128.4 142.746 124.817 108.679 129.909 91.2656H138.586C138.586 91.2656 141.044 94.1416 140.463 97.8124Z" fill="#3A4ACE"/>
<path d="M137.968 58.8672L139.986 68.1169L134.271 67.1521L135.255 61.3837L137.968 58.8672Z" fill="url(#paint4_linear)"/>
<path opacity="0.09" d="M137.804 59.5811C137.804 59.5811 136.336 63.0962 134.506 66.0541L135.133 62.1334L137.804 59.5811Z" fill="url(#paint5_linear)"/>
<path d="M137.804 59.5806L137.6 60.4543C137.088 62.6768 133.93 61.6178 133.93 61.6178L134.473 59.2457C134.473 59.2457 135.63 59.2764 135.953 59.7465C136.275 60.2166 137.404 60.2136 137.625 59.1074L137.804 59.5806Z" fill="url(#paint6_linear)"/>
<path d="M138.563 56.2666C138.563 56.2666 138.42 56.8934 138.203 57.8398L137.804 59.581L137.629 59.1078C137.407 60.2139 136.279 60.218 135.956 59.7469C135.632 59.2758 134.477 59.2461 134.477 59.2461L134.806 57.8122C134.873 57.5124 134.965 57.219 135.083 56.9354C136.169 54.3862 138.563 56.2666 138.563 56.2666Z" fill="url(#paint7_linear)"/>
<path opacity="0.32" d="M135.217 56.6546L135.084 56.9311C135.084 56.9311 136.894 57.1523 137.296 56.6505C137.296 56.6505 136.901 57.5641 137.63 59.1086L137.82 56.25L135.217 56.6546Z" fill="url(#paint8_linear)"/>
<path d="M137.433 56.5214C137.433 56.5214 134.362 56.8286 134.165 55.7716C133.967 54.7147 134.956 54.2148 134.956 54.2148C134.956 54.2148 134.636 55.0824 136.018 54.9318C137.4 54.7812 138.312 55.0967 138.633 55.9673C138.633 55.9673 139.685 56.421 139.305 57.4012C138.925 58.3813 138.357 60.652 138.357 60.652C138.357 60.652 136.959 58.5852 137.433 56.5214Z" fill="url(#paint9_linear)"/>
<path d="M137.805 59.5804L138.214 57.79C138.214 57.79 138.777 57.9222 138.504 58.7989C138.231 59.6756 137.805 59.5804 137.805 59.5804Z" fill="url(#paint10_linear)"/>
<path d="M134.734 59.2626C134.734 59.2626 133.823 59.2329 133.947 59.0823C134.071 58.9318 134.851 57.6484 134.851 57.6484L134.734 59.2626Z" fill="url(#paint11_linear)"/>
<path d="M134.339 59.8447C134.339 59.8447 135.588 59.9472 135.811 60.3783C136.034 60.8095 135.728 61.1178 135.336 61.0277L134.131 60.7512L134.339 59.8447Z" fill="url(#paint12_linear)"/>
<path d="M134.528 60.3813C134.381 60.3475 134.266 60.3157 134.232 60.3065L134.25 60.2461C134.67 60.3649 135.339 60.496 135.46 60.3721L135.505 60.4161C135.376 60.5482 134.865 60.4591 134.528 60.3813Z" fill="url(#paint13_linear)"/>
<path opacity="0.27" d="M137.334 57.4368C137.334 57.4368 138.581 57.1121 139.304 57.4009C139.304 57.4009 137.793 57.445 137.368 57.9581L137.334 57.4368Z" fill="white"/>
<path d="M135.308 57.3828L135.129 57.8499L136.429 58.1489C136.163 57.7636 135.764 57.4906 135.308 57.3828Z" fill="url(#paint14_linear)"/>
<path opacity="0.43" d="M135.128 57.8496C135.128 57.8496 134.956 58.4457 135.34 58.7325C135.724 59.0193 136.428 58.1487 136.428 58.1487L135.128 57.8496Z" fill="url(#paint15_linear)"/>
<path d="M135.781 58.4726C135.75 58.6047 135.646 58.6938 135.546 58.6713C135.493 58.6498 135.451 58.6085 135.427 58.5562C135.404 58.5039 135.402 58.4445 135.421 58.3907C135.452 58.2585 135.557 58.1694 135.656 58.192C135.709 58.2137 135.751 58.2549 135.775 58.3072C135.798 58.3595 135.8 58.4187 135.781 58.4726Z" fill="url(#paint16_linear)"/>
<path d="M137.434 56.5214C137.434 56.5214 133.203 56.2141 134.956 54.2148C134.956 54.2148 133.286 54.9861 134.252 56.2264C134.252 56.2295 134.676 57.0068 137.434 56.5214Z" fill="url(#paint17_linear)"/>
<path d="M131.525 69.0448C133.17 65.5522 138.321 63.7189 141.393 66.2067C144.465 68.6945 143.285 86.4267 138.558 91.2743H129.959C129.959 91.2743 128.63 75.1931 131.525 69.0448Z" fill="#FB7369"/>
<path opacity="0.37" d="M140.889 70.0264C140.889 70.0264 145.058 88.1918 129.969 91.2737L129.893 89.1802L135.625 79.2596L140.889 70.0264Z" fill="url(#paint18_linear)"/>
<path d="M114.698 65.2426C113.096 63.6398 111.063 62.5366 108.847 62.0668C106.63 61.597 104.325 61.7808 102.211 62.596C100.097 63.4111 98.265 64.8225 96.9369 66.659C95.6088 68.4955 94.842 70.6781 94.7293 72.9421C94.6167 75.2061 95.1631 77.4541 96.3024 79.4135C97.4416 81.3728 99.1246 82.9593 101.147 83.9805C103.17 85.0017 105.445 85.4136 107.698 85.1664C109.95 84.9192 112.082 84.0234 113.835 82.5877C114.132 82.3432 114.42 82.082 114.699 81.8041C114.978 81.5262 115.234 81.2442 115.466 80.9581C117.311 78.7109 118.255 75.8571 118.113 72.9521C117.971 70.0472 116.754 67.299 114.698 65.2426ZM113.745 80.8526C112.296 82.302 110.45 83.289 108.441 83.6888C106.432 84.0886 104.349 83.8834 102.456 83.0989C100.563 82.3145 98.9456 80.9861 97.8074 79.2817C96.6691 77.5774 96.0616 75.5737 96.0616 73.5239C96.0616 71.4741 96.6691 69.4704 97.8074 67.766C98.9456 66.0617 100.563 64.7333 102.456 63.9489C104.349 63.1644 106.432 62.9591 108.441 63.3589C110.45 63.7588 112.296 64.7458 113.745 66.1951C115.687 68.1387 116.779 70.7748 116.779 73.5234C116.779 76.272 115.687 78.908 113.745 80.8516V80.8526Z" fill="#F8FBFF"/>
<path opacity="0.38" d="M106.418 83.8883C112.14 83.8883 116.778 79.2477 116.778 73.5232C116.778 67.7988 112.14 63.1582 106.418 63.1582C100.697 63.1582 96.0586 67.7988 96.0586 73.5232C96.0586 79.2477 100.697 83.8883 106.418 83.8883Z" fill="white"/>
<path d="M131.899 96.5126C131.982 96.5951 132.056 96.6853 132.121 96.782C132.197 96.8954 132.259 97.0175 132.307 97.1456C132.427 97.4657 132.452 97.8136 132.38 98.1478C132.308 98.4819 132.141 98.7882 131.899 99.03C131.658 99.2717 131.352 99.4388 131.018 99.5111C130.684 99.5834 130.336 99.5579 130.016 99.4378C129.888 99.3903 129.766 99.3277 129.652 99.2513C129.556 99.1864 129.466 99.1123 129.383 99.0301C129.279 98.9261 129.188 98.8094 129.113 98.6829L120.361 89.465L122.337 87.4883L131.55 96.2443C131.677 96.3188 131.795 96.409 131.899 96.5126Z" fill="#AFCDFB"/>
<path d="M122.333 87.4863L120.357 89.463L118.674 87.6901L113.836 82.5875C114.134 82.3427 114.421 82.0825 114.7 81.804C114.978 81.5254 115.227 81.2499 115.468 80.959L120.566 85.8025L122.333 87.4863Z" fill="#F8FBFF"/>
<path d="M140.748 74.4132C140.483 76.7781 139.861 79.3704 138.583 81.7762C135.971 86.6925 129.947 90.5476 126.612 92.3983C125.211 93.1757 124.286 93.5977 124.286 93.5977C123.569 93.6571 123.829 93.1163 123.829 93.1163C123.283 93.1348 123.351 92.6134 123.351 92.6134C122.705 92.6319 122.85 92.0849 122.85 92.0849C122.268 92.0788 122.339 91.5442 122.339 91.5442L124.628 89.7006C122.717 89.6504 123.447 88.5381 123.447 88.5381L126.262 89.7671C131.022 86.8563 133.106 77.9498 134.28 72.1753C134.28 72.1753 134.28 72.1691 134.28 72.1671C134.28 72.165 134.28 72.1527 134.28 72.1445L134.306 72.1527L140.748 74.4132Z" fill="url(#paint19_linear)"/>
<path d="M140.748 74.4134L134.285 72.1428C134.503 71.0653 134.695 70.0667 134.874 69.1961C136.006 63.6653 140.469 66.2402 140.469 66.2402C140.469 66.2402 141.252 69.9141 140.748 74.4134Z" fill="#FB7369"/>
<path d="M134.12 60.7677C134.12 60.7677 133.805 60.7042 133.617 61.459C133.429 62.2139 134.812 62.4023 135.88 62.1514C136.949 61.9005 137.954 61.459 137.825 59.5724L137.621 59.1074C137.621 59.1074 136.949 61.585 134.12 60.7677Z" fill="url(#paint20_linear)"/>
<path d="M134.477 59.2459L134.375 59.8236C134.375 59.8236 135.964 59.9178 135.892 60.8478C136.083 60.815 136.266 60.7495 136.435 60.6542C136.435 60.6542 136.47 59.1711 134.477 59.2459Z" fill="url(#paint21_linear)"/>
<path d="M128.949 142.764C128.949 142.764 127.951 143.89 126.492 143.827C125.034 143.763 124.496 144.092 124.496 144.69H131.572L131.196 142.764H128.949Z" fill="white"/>
<path d="M131.634 144.742H124.446V144.691C124.442 144.587 124.46 144.485 124.499 144.389C124.537 144.293 124.595 144.206 124.669 144.134C124.966 143.851 125.564 143.733 126.495 143.776C127.915 143.838 128.901 142.741 128.911 142.73L128.926 142.713H131.239L131.634 144.742ZM124.549 144.639H131.51L131.155 142.815H128.972C128.836 142.959 127.856 143.942 126.49 143.878C125.588 143.837 125.016 143.945 124.74 144.209C124.681 144.265 124.634 144.332 124.602 144.405C124.569 144.479 124.551 144.559 124.549 144.639Z" fill="#5B71A8"/>
<path d="M140.55 96.5322L137.389 96.5578V97.8166H140.464L140.55 96.5322Z" fill="#293EB7"/>
<path d="M140.511 97.8682H137.338V96.5081L140.606 96.4814L140.511 97.8682ZM137.44 97.7658H140.416L140.496 96.5849L137.44 96.6095V97.7658Z" fill="white"/>
<path d="M140.459 97.8412C140.363 98.427 140.198 98.9992 139.966 99.5455C139.679 100.224 139.339 101.082 138.968 102.037C136.97 101.855 137.388 97.8125 137.388 97.8125L140.459 97.8412Z" fill="#293EB7"/>
<path d="M139.003 102.092H138.965C138.777 102.076 138.594 102.021 138.429 101.931C138.263 101.842 138.117 101.719 138 101.57C137.079 100.444 137.326 97.9212 137.337 97.8137L137.342 97.7676L140.516 97.7932L140.506 97.8526C140.41 98.4425 140.243 99.0188 140.01 99.5692C139.736 100.217 139.396 101.055 139.014 102.059L139.003 102.092ZM137.434 97.8679C137.405 98.2203 137.248 100.489 138.08 101.502C138.184 101.635 138.313 101.745 138.46 101.828C138.606 101.91 138.768 101.963 138.935 101.982C139.317 100.994 139.652 100.167 139.919 99.5241C140.141 98.9982 140.302 98.4483 140.399 97.8854L137.434 97.8679Z" fill="white"/>
<path d="M129.835 141.407C129.809 140.997 129.784 140.588 129.761 140.178L129.965 140.166C129.988 140.575 130.013 140.985 130.039 141.395L129.835 141.407ZM129.661 138.13C129.644 137.72 129.629 137.31 129.615 136.901L129.82 136.893C129.833 137.303 129.848 137.713 129.866 138.122L129.661 138.13ZM129.559 134.852C129.551 134.442 129.544 134.033 129.54 133.623H129.744C129.748 134.033 129.755 134.442 129.764 134.852H129.559ZM129.732 131.575H129.527C129.527 131.165 129.527 130.755 129.527 130.346H129.732C129.734 130.755 129.735 131.165 129.734 131.575H129.732ZM129.766 128.297H129.561C129.568 127.887 129.579 127.478 129.589 127.068L129.794 127.074C129.785 127.479 129.775 127.889 129.768 128.299L129.766 128.297ZM129.859 125.02L129.654 125.011C129.67 124.602 129.687 124.192 129.704 123.782L129.909 123.792C129.893 124.202 129.877 124.613 129.861 125.024L129.859 125.02ZM130.012 121.742L129.807 121.731C129.829 121.321 129.853 120.912 129.878 120.502L130.083 120.514C130.059 120.927 130.035 121.339 130.01 121.75L130.012 121.742ZM130.216 118.471L130.012 118.457C130.04 118.047 130.071 117.637 130.103 117.227L130.307 117.244C130.279 117.656 130.25 118.068 130.22 118.479L130.216 118.471ZM130.476 115.204L130.272 115.186C130.308 114.777 130.345 114.367 130.382 113.957L130.587 113.976C130.552 114.389 130.517 114.801 130.48 115.212L130.476 115.204ZM130.783 111.941L130.579 111.92C130.62 111.51 130.663 111.103 130.708 110.697L130.912 110.719C130.874 111.128 130.834 111.537 130.792 111.947L130.783 111.941ZM131.144 108.683L130.939 108.659C130.988 108.249 131.038 107.842 131.087 107.438L131.292 107.463C131.246 107.87 131.2 108.279 131.152 108.692L131.144 108.683ZM131.553 105.431L131.348 105.404C131.404 104.99 131.459 104.584 131.514 104.184L131.719 104.213C131.671 104.617 131.618 105.026 131.56 105.439L131.553 105.431ZM132.012 102.185L131.807 102.154C131.869 101.739 131.93 101.334 131.991 100.938L132.196 100.969C132.139 101.37 132.08 101.778 132.019 102.193L132.012 102.185ZM132.519 98.9452L132.314 98.9125C132.382 98.4925 132.45 98.0876 132.519 97.6978L132.723 97.7326C132.661 98.1272 132.595 98.5342 132.526 98.9534L132.519 98.9452ZM133.079 95.7149L132.874 95.678C132.953 95.2458 133.028 94.8412 133.099 94.4674L133.304 94.5053C133.238 94.8849 133.165 95.2909 133.086 95.7231L133.079 95.7149ZM133.699 92.4937L133.494 92.4528C133.654 91.6733 133.75 91.2483 133.751 91.2432L133.951 91.2893C133.951 91.2893 133.866 91.7256 133.706 92.5019L133.699 92.4937Z" fill="white"/>
<path opacity="0.54" d="M136.523 58.2877L134.98 58.0098L134.828 58.8585L136.37 59.1365L136.523 58.2877Z" fill="white"/>
<path d="M136.544 58.3321L134.959 58.0146L134.951 58.0084C134.849 57.9275 134.765 57.8968 134.714 57.9204C134.663 57.9439 134.643 58.0576 134.643 58.0586H134.564C134.564 58.0515 134.575 57.9019 134.681 57.8538C134.76 57.8179 134.864 57.8538 134.988 57.946L136.537 58.2532L138.175 57.7852L138.197 57.8609L136.544 58.3321Z" fill="white"/>
<path d="M140.748 74.4135C140.482 76.7784 139.861 79.3707 138.582 81.7766C135.971 86.6928 129.947 90.5479 126.611 92.3987C145.326 78.4089 134.586 72.3415 134.278 72.1735H134.271H134.28L134.31 72.1592L140.748 74.4135Z" fill="url(#paint22_linear)"/>
<path d="M110.447 57.2723C110.447 57.2723 108.723 54.763 107.313 54.3718C105.902 53.9805 104.958 53.9795 104.958 53.9795C104.958 53.9795 104.802 54.3718 106.212 54.4496L107.701 55.6254C107.701 55.6254 107.78 57.5079 108.564 58.4481L110.447 57.2723Z" fill="url(#paint23_linear)"/>
<path d="M109.856 57.642C109.856 57.642 107.312 55.6254 106.998 55.8609C106.683 56.0965 107.703 56.7233 107.703 56.7233C107.703 56.7233 107.861 57.8213 108.566 58.4481L109.856 57.642Z" fill="url(#paint24_linear)"/>
<path d="M182.011 96.377H152.17V144.059H182.011V96.377Z" fill="#AFCDFB"/>
<path d="M182.166 144.209H152.02V96.2227H182.168L182.166 144.209ZM152.327 143.902H181.861V96.5299H152.327V143.902Z" fill="#DAEAEE"/>
<path d="M174.723 100.429H155.66V102.299H174.723V100.429Z" fill="white"/>
<path d="M181.981 100.459H177.994V102.329H181.981V100.459Z" fill="white"/>
<path d="M174.723 103.794H155.66V105.664H174.723V103.794Z" fill="white"/>
<path d="M181.981 103.824H177.994V105.694H181.981V103.824Z" fill="white"/>
<path d="M174.723 107.845H155.66V109.715H174.723V107.845Z" fill="white"/>
<path d="M181.981 107.876H177.994V109.746H181.981V107.876Z" fill="white"/>
<path d="M174.723 111.211H155.66V113.081H174.723V111.211Z" fill="white"/>
<path d="M181.981 111.242H177.994V113.112H181.981V111.242Z" fill="white"/>
<path d="M174.723 115.262H155.66V117.132H174.723V115.262Z" fill="white"/>
<path d="M181.981 115.294H177.994V117.164H181.981V115.294Z" fill="white"/>
<path d="M174.723 118.629H155.66V120.499H174.723V118.629Z" fill="white"/>
<path d="M181.981 118.659H177.994V120.529H181.981V118.659Z" fill="white"/>
<path d="M174.723 122.68H155.66V124.55H174.723V122.68Z" fill="white"/>
<path d="M181.981 122.711H177.994V124.581H181.981V122.711Z" fill="white"/>
<path d="M174.723 126.045H155.66V127.915H174.723V126.045Z" fill="white"/>
<path d="M181.981 126.076H177.994V127.946H181.981V126.076Z" fill="white"/>
<path d="M174.723 130.097H155.66V131.967H174.723V130.097Z" fill="white"/>
<path d="M181.981 130.129H177.994V131.999H181.981V130.129Z" fill="white"/>
<path d="M174.723 133.462H155.66V135.332H174.723V133.462Z" fill="white"/>
<path d="M181.981 133.494H177.994V135.364H181.981V133.494Z" fill="white"/>
<path d="M174.723 137.514H155.66V139.384H174.723V137.514Z" fill="white"/>
<path d="M181.981 137.545H177.994V139.415H181.981V137.545Z" fill="white"/>
<path d="M174.723 140.88H155.66V142.75H174.723V140.88Z" fill="white"/>
<path d="M181.981 140.911H177.994V142.781H181.981V140.911Z" fill="white"/>
<path d="M181.981 93.1045H161.484V96.3461H181.981V93.1045Z" fill="#AFCDFB"/>
<path d="M182.134 96.4981H161.334V92.9502H182.138L182.134 96.4981ZM161.637 96.1908H181.826V93.2575H161.641L161.637 96.1908Z" fill="#DAEAEE"/>
<path d="M206.949 144.067C206.902 144.115 188.066 144.067 188.066 144.067C188.066 144.067 187.854 141.635 190.021 141.416C192.189 141.197 193.462 142.35 193.415 140.222C193.368 138.093 194.665 135.92 198.022 136.036C201.378 136.151 201.287 141.071 203.771 140.39C206.254 139.709 209.093 141.888 206.949 144.067Z" fill="#6D89D0"/>
<path d="M198.159 143.981C198.076 144.077 165.231 143.981 165.231 143.981C165.231 143.981 164.86 139.184 168.64 138.757C172.419 138.33 174.638 140.601 174.557 136.401C174.475 132.202 176.738 127.907 182.591 128.145C188.443 128.384 188.285 138.08 192.615 136.731C196.944 135.382 201.896 139.684 198.159 143.981Z" fill="#0A1BA7"/>
<path d="M13.6152 36.1969C13.6152 36.1969 27.6727 33.878 29.1396 25.6055C29.1396 25.6055 38.3324 32.947 39.1043 37.7393C39.1043 37.7393 30.9147 46.1635 17.0948 46.7043L13.6152 36.1969Z" fill="#D9E9FE"/>
<path d="M35.1997 37.9508C34.3726 34.9427 29.4271 29.6659 29.377 29.6127L29.6748 29.332C29.8796 29.5512 34.7411 34.7368 35.5939 37.8422L35.1997 37.9508Z" fill="white"/>
<path d="M33.7284 39.0228C33.0538 35.9502 28.4953 31.0534 28.4492 31.0043L28.7481 30.7236C28.7594 30.7359 29.9285 31.9865 31.1661 33.6088C32.8368 35.7996 33.8339 37.591 34.1287 38.9348L33.7284 39.0228Z" fill="white"/>
<path d="M32.2653 39.889C31.3613 36.9495 27.4764 32.2781 27.4375 32.232L27.7518 31.9688C27.761 31.981 28.754 33.1712 29.8473 34.7157C31.3245 36.7979 32.2653 38.4981 32.6553 39.7681L32.2653 39.889Z" fill="white"/>
<path d="M31.0237 40.4822C30.9387 39.9977 30.4351 38.8875 28.5136 36.3505C27.3527 34.8142 26.2144 33.4827 26.2031 33.4704L26.5102 33.2041C26.6976 33.4233 31.1077 38.5997 31.424 40.4125L31.0237 40.4822Z" fill="white"/>
<path d="M29.3252 40.9406C29.2044 40.1274 28.2871 38.7447 26.6717 36.9411C25.4361 35.5635 24.2241 34.4246 24.2148 34.4133L24.4953 34.1143C24.7001 34.3027 29.4173 38.7478 29.7336 40.8802L29.3252 40.9406Z" fill="white"/>
<path d="M27.4019 41.5929C26.5011 38.892 22.5516 35.1403 22.5117 35.1086L22.7922 34.8105C22.8024 34.8198 23.8159 35.7795 24.9307 37.0638C26.4356 38.805 27.3968 40.2809 27.7899 41.4608L27.4019 41.5929Z" fill="white"/>
<path d="M25.3928 42.1373C24.7213 40.1913 20.8466 36.2993 20.8066 36.2645L21.0963 35.9746C21.2591 36.1364 25.0775 39.969 25.7798 42.0031L25.3928 42.1373Z" fill="white"/>
<path d="M21.8473 40.5306C21.2526 39.192 19.0557 37.0606 19.0332 37.0401L19.3178 36.7451C19.4109 36.8342 21.5945 38.9533 22.221 40.3647L21.8473 40.5306Z" fill="white"/>
<path d="M186.125 76.912C186.125 76.912 178.61 75.6194 176.42 79.5432C176.42 79.5432 173.057 74.2172 173.506 71.6567C173.506 71.6567 179.122 68.833 186.208 70.9838L186.125 76.912Z" fill="#D9E9FE"/>
<path d="M176.714 77.6061C176.648 77.4586 175.09 73.9629 175.203 72.2197L175.613 72.2464C175.51 73.8851 177.073 77.4033 177.088 77.4391L176.714 77.6061Z" fill="white"/>
<path d="M177.426 77.0646C177.364 76.9274 175.928 73.6785 176.136 71.9189L176.545 71.9671C176.351 73.615 177.788 76.8649 177.803 76.8977L177.426 77.0646Z" fill="white"/>
<path d="M178.148 76.6051C178.098 76.4781 176.967 73.4721 177.021 71.7637L177.431 71.778C177.374 73.4034 178.513 76.429 178.525 76.4597L178.148 76.6051Z" fill="white"/>
<path d="M178.988 76.2013C178.846 75.8377 177.602 72.6247 177.76 71.6445L178.169 71.7101C178.05 72.4465 178.997 75.09 179.373 76.0517L178.988 76.2013Z" fill="white"/>
<path d="M180.177 76.0993C180.177 76.0912 179.753 75.2912 179.365 74.3653C178.833 73.0953 178.61 72.1981 178.705 71.6973L179.107 71.7731C178.946 72.6262 180.087 75.0506 180.54 75.9088L180.177 76.0993Z" fill="white"/>
<path d="M181.158 76.048C181.101 75.9395 179.766 73.3646 179.785 71.7617L180.195 71.7668C180.177 73.2663 181.507 75.833 181.526 75.8586L181.158 76.048Z" fill="white"/>
<path d="M182.218 75.7543C182.164 75.6436 180.895 73.0145 180.896 71.8428H181.306C181.306 72.9213 182.573 75.5484 182.587 75.575L182.218 75.7543Z" fill="white"/>
<path d="M183.252 75.6785C183.22 75.616 182.48 74.1422 182.408 73.3044L182.818 73.2695C182.883 74.0326 183.612 75.4788 183.619 75.4931L183.252 75.6785Z" fill="white"/>
<path d="M9.8042 103.209C9.8042 103.209 17.789 117.172 27.1129 115.467C27.1129 115.467 22.972 128.086 18.2067 130.791C18.2067 130.791 6.07692 125.445 0.0585938 111.024L9.8042 103.209Z" fill="white"/>
<path d="M18.2136 130.848L18.1901 130.838C18.1604 130.825 15.1077 129.462 11.361 126.355C6.4022 122.24 2.50969 116.988 0.0143318 111.046L0 111.011L9.81829 103.131L9.84798 103.183C11.3139 105.618 13.0419 107.885 15.0013 109.943C16.8337 111.842 18.6866 113.282 20.5006 114.225C22.7671 115.402 24.9895 115.803 27.1034 115.416L27.1874 115.401L27.1608 115.483C27.1198 115.609 22.9636 128.151 18.2362 130.836L18.2136 130.848ZM0.123868 111.043C2.61402 116.955 6.49092 122.18 11.4265 126.276C14.989 129.231 17.9178 130.601 18.2085 130.733C22.6893 128.158 26.6694 116.622 27.0359 115.532C24.924 115.897 22.7097 115.488 20.4525 114.316C18.6252 113.367 16.7672 111.92 14.9245 110.015C12.9744 107.964 11.252 105.709 9.78758 103.288L0.123868 111.043Z" fill="#5B71A8"/>
<path d="M16.616 126.97L16.5566 126.887C19.4496 124.802 23.096 117.45 23.1349 117.375L23.2271 117.42C23.1882 117.495 19.5264 124.87 16.616 126.97Z" fill="#5B71A8"/>
<path d="M14.8912 125.845L14.8359 125.759C16.4165 124.735 18.0882 122.397 19.2122 120.613C20.4325 118.676 21.2883 116.959 21.2965 116.942L21.3886 116.987C21.3794 117.005 20.5226 118.729 19.2993 120.666C18.1701 122.46 16.4882 124.814 14.8912 125.845Z" fill="#5B71A8"/>
<path d="M13.4199 124.625L13.3574 124.544C16.1378 122.406 19.5631 116.425 19.602 116.364L19.691 116.415C19.6552 116.476 16.2166 122.475 13.4199 124.625Z" fill="#5B71A8"/>
<path d="M12.2749 123.564L12.2227 123.475C13.9476 122.468 17.765 115.614 17.8028 115.544L17.8929 115.594C17.8827 115.612 16.9173 117.348 15.7503 119.187C14.18 121.662 13.0099 123.133 12.2749 123.564Z" fill="#5B71A8"/>
<path d="M11.1127 121.948L11.0625 121.859C13.1099 120.732 15.9988 113.859 16.0274 113.789L16.1226 113.829C16.1144 113.846 15.3846 115.589 14.4079 117.45C13.0945 119.954 11.9859 121.472 11.1127 121.948Z" fill="#5B71A8"/>
<path d="M9.70605 120.14L9.64258 120.06C12.1783 118.012 14.6003 112.319 14.6239 112.262L14.7181 112.302C14.6945 112.362 12.2632 118.082 9.70605 120.14Z" fill="#5B71A8"/>
<path d="M8.34379 118.231L8.2793 118.152C10.0994 116.649 12.7037 110.982 12.7303 110.922L12.8235 110.964C12.7969 111.024 10.1824 116.714 8.34379 118.231Z" fill="#5B71A8"/>
<path d="M8.6615 113.829L8.58984 113.756C9.79576 112.575 11.1972 109.38 11.2115 109.352L11.3047 109.393C11.2914 109.421 9.88175 112.634 8.6615 113.829Z" fill="#5B71A8"/>
<path d="M224.766 64.73C232.516 64.73 235.392 64.4873 234.74 62.5495C234.088 60.6117 233.09 59.3181 231.128 59.9644C229.165 60.6106 229.893 55.5213 226.898 54.9559C223.902 54.3906 222.757 58.5847 221.519 57.7807C220.282 56.9767 216.778 56.5158 216.34 59.8138C215.903 63.1118 212.824 59.6376 211.427 61.092C210.029 62.5464 208.883 64.73 224.766 64.73Z" fill="#D9E9FE"/>
<path d="M64.9878 14.1338C68.4684 14.1338 69.7603 14.0252 69.4675 13.1546C69.1747 12.284 68.7263 11.7023 67.8449 11.9932C66.9635 12.284 67.2901 9.99696 65.9449 9.73988C64.5998 9.48281 64.0859 11.3786 63.529 11.0099C62.9721 10.6412 61.3977 10.4425 61.2022 11.9235C61.0066 13.4045 59.6226 11.8446 58.994 12.4981C58.3655 13.1515 57.8516 14.1338 64.9878 14.1338Z" fill="#DAEAEE"/>
<path d="M206.901 79.3627C210.678 79.3627 212.081 79.2439 211.763 78.2996C211.446 77.3553 210.959 76.7244 210.002 77.0388C209.046 77.3532 209.399 74.8736 207.94 74.5971C206.48 74.3205 205.922 76.37 205.318 75.9756C204.714 75.5813 203.005 75.3611 202.792 76.9671C202.58 78.5731 201.079 76.8811 200.396 77.5908C199.713 78.3006 199.156 79.3627 206.901 79.3627Z" fill="white"/>
<path d="M206.902 79.4139C200.452 79.4139 200.124 78.6468 200.016 78.3897C199.89 78.0948 200.119 77.7998 200.36 77.5499C200.667 77.2252 201.126 77.3635 201.565 77.4966C201.913 77.599 202.243 77.7015 202.463 77.5601C202.61 77.4659 202.701 77.2672 202.742 76.9558C202.818 76.3884 203.089 75.9828 203.529 75.7811C204.171 75.4851 204.979 75.6879 205.347 75.9275C205.559 76.0658 205.773 75.8446 206.106 75.4738C206.516 75.0119 207.087 74.3789 207.949 74.5418C208.754 74.6944 209.027 75.4912 209.247 76.1313C209.452 76.7459 209.605 77.1105 209.986 76.9855C211.112 76.6158 211.566 77.5458 211.811 78.2781C211.886 78.4993 211.871 78.6775 211.766 78.824C211.408 79.3289 209.976 79.4139 206.902 79.4139ZM200.862 77.4597C200.783 77.4556 200.703 77.4682 200.629 77.4968C200.555 77.5254 200.488 77.5693 200.432 77.6257C200.215 77.852 200.006 78.1142 200.108 78.3549C200.378 78.9899 202.668 79.3115 206.9 79.3115C209.877 79.3115 211.351 79.2306 211.682 78.7697C211.725 78.7026 211.75 78.6259 211.755 78.5467C211.76 78.4675 211.746 78.3882 211.713 78.316C211.339 77.2037 210.816 76.8247 210.017 77.0869C209.52 77.2508 209.348 76.7489 209.15 76.1651C208.928 75.5178 208.675 74.7835 207.928 74.6432C207.122 74.4906 206.598 75.0733 206.18 75.5414C205.861 75.8978 205.584 76.2061 205.288 76.0136C204.95 75.7934 204.17 75.5967 203.568 75.8743C203.159 76.0627 202.913 76.4314 202.843 76.9691C202.797 77.3123 202.69 77.5345 202.516 77.6461C202.256 77.8141 201.902 77.7076 201.533 77.5949C201.318 77.5189 201.092 77.4734 200.864 77.4597H200.862Z" fill="#5B71A8"/>
<path d="M87.278 8.58912C94.0108 8.58912 96.5097 8.37813 95.9436 6.69433C95.3775 5.01052 94.5104 3.88696 92.8049 4.44823C91.0994 5.0095 91.7321 0.588991 89.1298 0.10249C86.5276 -0.384011 85.5346 3.26116 84.4577 2.5606C83.3807 1.86004 80.3373 1.46265 79.9534 4.32737C79.5695 7.19209 76.9028 4.16759 75.6866 5.4284C74.4705 6.68921 73.4785 8.58912 87.278 8.58912Z" fill="white"/>
<path d="M87.2785 8.6403C79.5598 8.6403 75.5582 8.05445 75.0463 6.84895C74.8314 6.34401 75.2316 5.83088 75.6503 5.39559C76.1898 4.83535 76.9811 5.07706 77.7571 5.31161C78.3877 5.50314 78.9855 5.6834 79.395 5.42017C79.6673 5.24401 79.8362 4.88246 79.912 4.31402C80.0399 3.31849 80.516 2.60563 81.2817 2.2533C82.4077 1.7412 83.8553 2.10377 84.4838 2.51243C84.9086 2.78897 85.3406 2.30759 85.8883 1.69306C86.6622 0.83272 87.6286 -0.238607 89.1396 0.0471485C90.5513 0.313444 91.0345 1.72174 91.4224 2.85349C91.7664 3.8562 92.0366 4.64792 92.7891 4.40006C94.7556 3.75275 95.5592 5.38945 95.9922 6.67791C96.1202 7.05892 96.0946 7.36516 95.9165 7.61506C95.2869 8.49179 92.7471 8.6403 87.2785 8.6403ZM76.5184 5.15798C76.3719 5.15059 76.2254 5.17414 76.0886 5.22707C75.9517 5.28001 75.8275 5.36115 75.724 5.46524C75.3279 5.87492 74.9491 6.35835 75.1405 6.80798C75.6278 7.9551 79.7113 8.53686 87.2785 8.53686C92.7041 8.53686 95.2296 8.39449 95.8335 7.55361C95.9922 7.3334 96.0117 7.05687 95.895 6.70966C95.2193 4.70118 94.2714 4.01803 92.8239 4.49633C91.9763 4.77492 91.6763 3.90024 91.3283 2.88627C90.928 1.72174 90.4755 0.402551 89.1222 0.146497C87.6614 -0.126968 86.7216 0.921827 85.9671 1.76271C85.3867 2.41001 84.9281 2.92109 84.4316 2.59642C83.8174 2.20005 82.4149 1.84464 81.3288 2.34446C80.5835 2.68757 80.1403 3.35433 80.0113 4.32734C79.9314 4.92753 79.7472 5.31263 79.4482 5.50621C78.9999 5.79504 78.3826 5.60863 77.7294 5.40891C77.3148 5.28395 76.8951 5.15695 76.5184 5.15695V5.15798Z" fill="#5B71A8"/>
<path d="M9.63239 81.517C14.5912 81.517 16.4318 81.3623 16.0151 80.1209C15.5985 78.8796 14.9587 78.0541 13.7036 78.4668C12.4486 78.8796 12.9123 75.6246 10.996 75.2631C9.07959 74.9015 8.34867 77.5881 7.55428 77.0719C6.75989 76.5557 4.52004 76.2627 4.24057 78.3726C3.9611 80.4825 1.98843 78.261 1.09474 79.192C0.201053 80.123 -0.531915 81.517 9.63239 81.517Z" fill="white"/>
<path d="M9.63048 81.5684C3.93872 81.5684 0.987395 81.1342 0.607603 80.2369C0.446882 79.858 0.743754 79.4759 1.05598 79.1513C1.45932 78.7334 2.04999 78.9126 2.62122 79.0857C3.08188 79.226 3.51798 79.3582 3.81383 79.1677C4.01038 79.0407 4.13322 78.7774 4.1885 78.3626C4.28575 77.6242 4.63893 77.0957 5.2122 76.8324C6.04242 76.4514 7.11832 76.7218 7.58411 77.025C7.89122 77.2227 8.19833 76.8703 8.60064 76.4258C9.17186 75.7888 9.88231 74.9919 11.0063 75.208C12.0536 75.4057 12.4119 76.4473 12.6985 77.2841C12.977 78.0953 13.1735 78.5839 13.6884 78.4108C15.1472 77.9294 15.743 79.1431 16.0644 80.0966C16.1607 80.3824 16.1412 80.6087 16.0071 80.7992C15.5362 81.4588 13.6598 81.5684 9.63048 81.5684ZM1.70603 79.0079C1.59929 79.0012 1.49235 79.0173 1.39229 79.0551C1.29223 79.0929 1.20132 79.1515 1.12559 79.2271C0.836911 79.5261 0.560512 79.8764 0.697688 80.2011C1.05496 81.0399 4.05849 81.466 9.62639 81.466C13.539 81.466 15.4778 81.3636 15.917 80.749C16.0306 80.5903 16.045 80.3906 15.96 80.1345C15.4656 78.6648 14.7725 78.1649 13.713 78.5132C13.0762 78.718 12.8531 78.0717 12.5951 77.3189C12.3013 76.4647 11.9696 75.4969 10.9807 75.3105C9.91302 75.1056 9.22407 75.8768 8.67025 76.4955C8.26077 76.9574 7.89736 77.3568 7.52064 77.11C7.07431 76.8191 6.04344 76.559 5.24803 76.9246C4.70342 77.1756 4.37993 77.6631 4.28575 78.3749C4.22638 78.8215 4.0892 79.1082 3.86501 79.2527C3.52924 79.4688 3.07164 79.3305 2.58744 79.183C2.28954 79.096 1.98141 79.0028 1.70603 79.0028V79.0079Z" fill="#5B71A8"/>
<defs>
<linearGradient id="paint0_linear" x1="104.914" y1="65.7509" x2="122.336" y2="65.7509" gradientUnits="userSpaceOnUse">
<stop stop-color="#26235C"/>
<stop offset="1" stop-color="#434D82"/>
</linearGradient>
<linearGradient id="paint1_linear" x1="105.751" y1="54.9408" x2="111.555" y2="59.1384" gradientUnits="userSpaceOnUse">
<stop stop-color="#FFF4DE"/>
<stop offset="1" stop-color="#D26766"/>
</linearGradient>
<linearGradient id="paint2_linear" x1="24138.2" y1="8275.04" x2="24109.8" y2="11701.9" gradientUnits="userSpaceOnUse">
<stop stop-color="#FFF4DE"/>
<stop offset="1" stop-color="#D26766"/>
</linearGradient>
<linearGradient id="paint3_linear" x1="8314.98" y1="4738.21" x2="8873.59" y2="4738.21" gradientUnits="userSpaceOnUse">
<stop stop-color="#26235C"/>
<stop offset="1" stop-color="#434D82"/>
</linearGradient>
<linearGradient id="paint4_linear" x1="7131.51" y1="6238.69" x2="6225.89" y2="6590.45" gradientUnits="userSpaceOnUse">
<stop stop-color="#FFF4DE"/>
<stop offset="1" stop-color="#D26766"/>
</linearGradient>
<linearGradient id="paint5_linear" x1="130.929" y1="55.3932" x2="146.709" y2="77.7269" gradientUnits="userSpaceOnUse">
<stop stop-color="#412612"/>
<stop offset="1" stop-color="#D26766"/>
</linearGradient>
<linearGradient id="paint6_linear" x1="132.926" y1="58.2234" x2="140.171" y2="63.609" gradientUnits="userSpaceOnUse">
<stop stop-color="#AE9D8E"/>
<stop offset="1" stop-color="#D26766"/>
</linearGradient>
<linearGradient id="paint7_linear" x1="4922.93" y1="3314.96" x2="5215.58" y2="3437.77" gradientUnits="userSpaceOnUse">
<stop stop-color="#FFF4DE"/>
<stop offset="1" stop-color="#D26766"/>
</linearGradient>
<linearGradient id="paint8_linear" x1="3768.83" y1="1094.52" x2="3863.85" y2="1471.35" gradientUnits="userSpaceOnUse">
<stop stop-color="#412612"/>
<stop offset="1" stop-color="#D26766"/>
</linearGradient>
<linearGradient id="paint9_linear" x1="7485.93" y1="3241.78" x2="6961.26" y2="2963.11" gradientUnits="userSpaceOnUse">
<stop stop-color="#412612"/>
<stop offset="1" stop-color="#D26766"/>
</linearGradient>
<linearGradient id="paint10_linear" x1="992.793" y1="1131.14" x2="959.751" y2="1134.85" gradientUnits="userSpaceOnUse">
<stop stop-color="#FFF4DE"/>
<stop offset="1" stop-color="#D26766"/>
</linearGradient>
<linearGradient id="paint11_linear" x1="1156.23" y1="1005.19" x2="1176.84" y2="1120.57" gradientUnits="userSpaceOnUse">
<stop stop-color="#FFF4DE"/>
<stop offset="1" stop-color="#D26766"/>
</linearGradient>
<linearGradient id="paint12_linear" x1="2234.09" y1="1155.46" x2="2323.45" y2="1241.18" gradientUnits="userSpaceOnUse">
<stop stop-color="#FFF4DE"/>
<stop offset="1" stop-color="#D26766"/>
</linearGradient>
<linearGradient id="paint13_linear" x1="1839.79" y1="180.84" x2="1855.51" y2="180.84" gradientUnits="userSpaceOnUse">
<stop stop-color="#412612"/>
<stop offset="1" stop-color="#D26766"/>
</linearGradient>
<linearGradient id="paint14_linear" x1="1917.48" y1="432.958" x2="1884.05" y2="411.977" gradientUnits="userSpaceOnUse">
<stop stop-color="#412612"/>
<stop offset="1" stop-color="#D26766"/>
</linearGradient>
<linearGradient id="paint15_linear" x1="1912.5" y1="496.065" x2="1971.58" y2="571.376" gradientUnits="userSpaceOnUse">
<stop stop-color="#AE9D8E"/>
<stop offset="1" stop-color="#D26766"/>
</linearGradient>
<linearGradient id="paint16_linear" x1="657.71" y1="293.373" x2="653.72" y2="295.941" gradientUnits="userSpaceOnUse">
<stop stop-color="#412612"/>
<stop offset="1" stop-color="#D26766"/>
</linearGradient>
<linearGradient id="paint17_linear" x1="5111.28" y1="1292.06" x2="4569.63" y2="955.32" gradientUnits="userSpaceOnUse">
<stop stop-color="#412612"/>
<stop offset="1" stop-color="#D26766"/>
</linearGradient>
<linearGradient id="paint18_linear" x1="16136.4" y1="17729.9" x2="14491.2" y2="17138.4" gradientUnits="userSpaceOnUse">
<stop stop-color="#26235C"/>
<stop offset="1" stop-color="#434D82"/>
</linearGradient>
<linearGradient id="paint19_linear" x1="22124.7" y1="17434.2" x2="25436.6" y2="17434.2" gradientUnits="userSpaceOnUse">
<stop stop-color="#FFF4DE"/>
<stop offset="1" stop-color="#D26766"/>
</linearGradient>
<linearGradient id="paint20_linear" x1="5856.33" y1="1972.36" x2="5678.08" y2="1813.39" gradientUnits="userSpaceOnUse">
<stop stop-color="#412612"/>
<stop offset="1" stop-color="#D26766"/>
</linearGradient>
<linearGradient id="paint21_linear" x1="2895.09" y1="1016.37" x2="2827.62" y2="958.978" gradientUnits="userSpaceOnUse">
<stop stop-color="#412612"/>
<stop offset="1" stop-color="#D26766"/>
</linearGradient>
<linearGradient id="paint22_linear" x1="15916.4" y1="15804.9" x2="19480" y2="16215.5" gradientUnits="userSpaceOnUse">
<stop stop-color="#FFF4DE"/>
<stop offset="1" stop-color="#D26766"/>
</linearGradient>
<linearGradient id="paint23_linear" x1="5805.5" y1="2449.53" x2="6609.33" y2="3238.9" gradientUnits="userSpaceOnUse">
<stop stop-color="#FFF4DE"/>
<stop offset="1" stop-color="#D26766"/>
</linearGradient>
<linearGradient id="paint24_linear" x1="3198.89" y1="1517.61" x2="3445.06" y2="1737.76" gradientUnits="userSpaceOnUse">
<stop stop-color="#FFF4DE"/>
<stop offset="1" stop-color="#D26766"/>
</linearGradient>
</defs>
</svg>
