<svg width="680" height="42" viewBox="0 0 680 42" fill="none" xmlns="http://www.w3.org/2000/svg">
<rect x="0.5" y="0.5" width="679" height="41" rx="3.5" fill="#F9FAFB"/>
<rect x="0.5" y="0.5" width="679" height="41" rx="3.5" stroke="#BDBDBD"/>
<rect x="0.5" y="0.5" width="679" height="41" rx="3.5" stroke="#E8E8E8"/>
<path d="M662.584 23.5691L665.901 19.727C665.964 19.6544 665.998 19.5713 666 19.4864C666.002 19.4015 665.972 19.3178 665.912 19.2438C665.853 19.1698 665.766 19.1082 665.662 19.0654C665.557 19.0226 665.439 19 665.318 19L658.683 19C658.562 19 658.443 19.0225 658.338 19.0654C658.234 19.1082 658.147 19.1698 658.088 19.2439C658.028 19.3179 657.998 19.4017 658 19.4866C658.002 19.5716 658.036 19.6546 658.099 19.7273L661.416 23.5691C661.477 23.6395 661.563 23.6978 661.665 23.7383C661.767 23.7787 661.883 23.8 662 23.8C662.117 23.8 662.233 23.7787 662.335 23.7383C662.437 23.6978 662.523 23.6395 662.584 23.5691Z" fill="#00296B"/>
<path d="M62.544 14.544H64.592L68.896 26H66.912L65.888 23.072H61.264L60.224 26H58.24L62.544 14.544ZM65.28 21.408L64.064 18L63.616 16.672H63.52L63.072 18L61.856 21.408H65.28ZM73.4183 26.256C72.6823 26.256 72.0156 26.0693 71.4183 25.696C70.8209 25.3227 70.3463 24.8107 69.9943 24.16C69.6529 23.4987 69.4823 22.752 69.4823 21.92C69.4823 21.088 69.6529 20.3467 69.9943 19.696C70.3463 19.0347 70.8209 18.5173 71.4183 18.144C72.0156 17.7707 72.6823 17.584 73.4183 17.584C73.9943 17.584 74.5116 17.712 74.9703 17.968C75.4289 18.224 75.7756 18.5387 76.0103 18.912H76.0903L76.0103 17.76V14.544H77.7703V26H76.0903V24.944H76.0103C75.7756 25.3067 75.4289 25.616 74.9703 25.872C74.5116 26.128 73.9943 26.256 73.4183 26.256ZM73.6743 24.64C74.1009 24.64 74.4956 24.528 74.8583 24.304C75.2316 24.08 75.5303 23.76 75.7543 23.344C75.9783 22.928 76.0903 22.4533 76.0903 21.92C76.0903 21.3867 75.9783 20.9173 75.7543 20.512C75.5303 20.096 75.2316 19.776 74.8583 19.552C74.4956 19.328 74.1009 19.216 73.6743 19.216C73.2476 19.216 72.8476 19.328 72.4743 19.552C72.1009 19.776 71.8023 20.096 71.5783 20.512C71.3543 20.9173 71.2423 21.3867 71.2423 21.92C71.2423 22.4533 71.3543 22.928 71.5783 23.344C71.8023 23.76 72.1009 24.08 72.4743 24.304C72.8476 24.528 73.2476 24.64 73.6743 24.64ZM83.2308 26.256C82.4948 26.256 81.8281 26.0693 81.2308 25.696C80.6334 25.3227 80.1588 24.8107 79.8068 24.16C79.4654 23.4987 79.2948 22.752 79.2948 21.92C79.2948 21.088 79.4654 20.3467 79.8068 19.696C80.1588 19.0347 80.6334 18.5173 81.2308 18.144C81.8281 17.7707 82.4948 17.584 83.2308 17.584C83.8068 17.584 84.3241 17.712 84.7828 17.968C85.2414 18.224 85.5881 18.5387 85.8228 18.912H85.9028L85.8228 17.76V14.544H87.5828V26H85.9028V24.944H85.8228C85.5881 25.3067 85.2414 25.616 84.7828 25.872C84.3241 26.128 83.8068 26.256 83.2308 26.256ZM83.4868 24.64C83.9134 24.64 84.3081 24.528 84.6708 24.304C85.0441 24.08 85.3428 23.76 85.5668 23.344C85.7908 22.928 85.9028 22.4533 85.9028 21.92C85.9028 21.3867 85.7908 20.9173 85.5668 20.512C85.3428 20.096 85.0441 19.776 84.6708 19.552C84.3081 19.328 83.9134 19.216 83.4868 19.216C83.0601 19.216 82.6601 19.328 82.2868 19.552C81.9134 19.776 81.6148 20.096 81.3908 20.512C81.1668 20.9173 81.0548 21.3867 81.0548 21.92C81.0548 22.4533 81.1668 22.928 81.3908 23.344C81.6148 23.76 81.9134 24.08 82.2868 24.304C82.6601 24.528 83.0601 24.64 83.4868 24.64ZM96.7274 26.128C96.3647 26.128 96.0234 26.0693 95.7034 25.952C95.3834 25.8347 95.122 25.68 94.9194 25.488C94.4607 25.0293 94.2314 24.4053 94.2314 23.616V19.392H92.8074V17.84H94.2314V15.536H95.9914V17.84H97.9754V19.392H95.9914V23.232C95.9914 23.6693 96.0767 23.9787 96.2474 24.16C96.4074 24.3733 96.6847 24.48 97.0794 24.48C97.2607 24.48 97.4207 24.4587 97.5594 24.416C97.698 24.3627 97.8474 24.2827 98.0074 24.176V25.888C97.6554 26.048 97.2287 26.128 96.7274 26.128ZM102.053 26.256C101.466 26.256 100.943 26.144 100.485 25.92C100.026 25.6853 99.6688 25.36 99.4128 24.944C99.1568 24.5173 99.0288 24.0373 99.0288 23.504C99.0288 22.6613 99.3434 21.9947 99.9728 21.504C100.613 21.0133 101.418 20.768 102.389 20.768C102.869 20.768 103.301 20.816 103.685 20.912C104.069 20.9973 104.373 21.0933 104.597 21.2V20.784C104.597 20.2827 104.41 19.8773 104.037 19.568C103.663 19.248 103.183 19.088 102.597 19.088C102.181 19.088 101.786 19.1787 101.413 19.36C101.05 19.5413 100.757 19.792 100.533 20.112L99.3008 19.168C99.6634 18.6667 100.133 18.2773 100.709 18C101.285 17.7227 101.925 17.584 102.629 17.584C103.813 17.584 104.725 17.8773 105.365 18.464C106.005 19.04 106.325 19.856 106.325 20.912V26H104.597V25.024H104.517C104.282 25.376 103.951 25.6693 103.525 25.904C103.098 26.1387 102.607 26.256 102.053 26.256ZM102.357 24.8C102.783 24.8 103.167 24.6987 103.509 24.496C103.85 24.2933 104.117 24.0213 104.309 23.68C104.501 23.3387 104.597 22.9707 104.597 22.576C104.351 22.4373 104.063 22.3253 103.733 22.24C103.413 22.1547 103.077 22.112 102.725 22.112C102.063 22.112 101.578 22.2453 101.269 22.512C100.959 22.768 100.805 23.104 100.805 23.52C100.805 23.8933 100.949 24.2027 101.237 24.448C101.525 24.6827 101.898 24.8 102.357 24.8ZM111.141 26.256C110.202 26.256 109.434 26.0533 108.837 25.648C108.239 25.232 107.818 24.704 107.573 24.064L109.141 23.376C109.333 23.8027 109.599 24.128 109.941 24.352C110.293 24.576 110.693 24.688 111.141 24.688C111.578 24.688 111.946 24.6133 112.245 24.464C112.543 24.304 112.693 24.0693 112.693 23.76C112.693 23.4613 112.565 23.2267 112.309 23.056C112.053 22.8853 111.658 22.736 111.125 22.608L110.149 22.368C109.498 22.208 108.959 21.9253 108.533 21.52C108.106 21.1147 107.893 20.6027 107.893 19.984C107.893 19.504 108.031 19.0827 108.309 18.72C108.597 18.3573 108.981 18.08 109.461 17.888C109.941 17.6853 110.463 17.584 111.029 17.584C111.786 17.584 112.453 17.7387 113.029 18.048C113.605 18.3467 114.021 18.784 114.277 19.36L112.741 20.032C112.431 19.4027 111.866 19.088 111.045 19.088C110.65 19.088 110.319 19.168 110.053 19.328C109.786 19.488 109.653 19.696 109.653 19.952C109.653 20.1973 109.754 20.4 109.957 20.56C110.159 20.7093 110.458 20.8373 110.853 20.944L112.053 21.248C112.853 21.4507 113.455 21.76 113.861 22.176C114.277 22.5813 114.485 23.0827 114.485 23.68C114.485 24.192 114.335 24.6453 114.037 25.04C113.749 25.424 113.349 25.7227 112.837 25.936C112.325 26.1493 111.759 26.256 111.141 26.256ZM116.008 14.544H117.768V21.216H117.816L121.16 17.84H123.368V17.936L120.2 21.088L123.464 25.904V26H121.368L118.968 22.304L117.768 23.472V26H116.008V14.544Z" fill="#979797"/>
<path d="M0.5 4C0.5 2.067 2.067 0.5 4 0.5H41.5V41.5H4C2.067 41.5 0.5 39.933 0.5 38V4Z" fill="white" stroke="#E8E8E8"/>
<path d="M13 21.5C13 21.7818 13.1119 22.052 13.3112 22.2513C13.5105 22.4506 13.7807 22.5625 14.0625 22.5625H20.2604C20.3074 22.5625 20.3524 22.5812 20.3856 22.6144C20.4188 22.6476 20.4375 22.6926 20.4375 22.7396V28.9375C20.4375 29.2193 20.5494 29.4895 20.7487 29.6888C20.948 29.8881 21.2182 30 21.5 30C21.7818 30 22.052 29.8881 22.2513 29.6888C22.4506 29.4895 22.5625 29.2193 22.5625 28.9375V22.7396C22.5625 22.6926 22.5812 22.6476 22.6144 22.6144C22.6476 22.5812 22.6926 22.5625 22.7396 22.5625H28.9375C29.2193 22.5625 29.4895 22.4506 29.6888 22.2513C29.8881 22.052 30 21.7818 30 21.5C30 21.2182 29.8881 20.948 29.6888 20.7487C29.4895 20.5494 29.2193 20.4375 28.9375 20.4375H22.7396C22.6926 20.4375 22.6476 20.4188 22.6144 20.3856C22.5812 20.3524 22.5625 20.3074 22.5625 20.2604V14.0625C22.5625 13.7807 22.4506 13.5105 22.2513 13.3112C22.052 13.1119 21.7818 13 21.5 13C21.2182 13 20.948 13.1119 20.7487 13.3112C20.5494 13.5105 20.4375 13.7807 20.4375 14.0625V20.2604C20.4375 20.3074 20.4188 20.3524 20.3856 20.3856C20.3524 20.4188 20.3074 20.4375 20.2604 20.4375H14.0625C13.7807 20.4375 13.5105 20.5494 13.3112 20.7487C13.1119 20.948 13 21.2182 13 21.5V21.5Z" fill="#666666"/>
</svg>
