<svg width="8" height="5" viewBox="0 0 8 5" fill="none" xmlns="http://www.w3.org/2000/svg">
<path d="M3.41621 0.430941L0.0986696 4.27297C0.0360017 4.34562 0.00197797 4.42865 8.44427e-05 4.51356C-0.00180909 4.59848 0.0284949 4.68222 0.0878926 4.75621C0.14729 4.83019 0.233644 4.89176 0.338104 4.9346C0.442564 4.97744 0.561372 5.00001 0.682353 5L7.31744 5C7.43847 5.00004 7.55734 4.97747 7.66185 4.93462C7.76636 4.89177 7.85275 4.83017 7.91215 4.75615C7.97156 4.68213 8.00185 4.59834 7.99991 4.51339C7.99797 4.42844 7.96388 4.34538 7.90112 4.27273L4.58358 0.430941C4.52281 0.360455 4.43715 0.302167 4.3349 0.26171C4.23266 0.221254 4.11727 0.199999 3.9999 0.199999C3.88253 0.199999 3.76714 0.221254 3.66489 0.26171C3.56264 0.302167 3.47699 0.360455 3.41621 0.430941Z" fill="#00296B"/>
</svg>
