<svg width="12" height="12" viewBox="0 0 12 12" fill="none" xmlns="http://www.w3.org/2000/svg">
<path d="M7.14948 6.08106C7.13784 6.07041 7.1286 6.05777 7.1223 6.04385C7.116 6.02993 7.11276 6.015 7.11276 5.99993C7.11276 5.98486 7.116 5.96994 7.1223 5.95602C7.1286 5.9421 7.13784 5.92945 7.14948 5.91881L11.7806 1.6739C11.9212 1.54481 12.0001 1.3698 12 1.18737C11.9999 1.00494 11.9207 0.830031 11.7799 0.701124C11.639 0.572218 11.4481 0.499871 11.2491 0.5C11.0501 0.500129 10.8593 0.572723 10.7187 0.701812L6.08807 4.94489C6.07646 4.95556 6.06266 4.96403 6.04748 4.9698C6.03229 4.97558 6.01601 4.97855 5.99957 4.97855C5.98313 4.97855 5.96685 4.97558 5.95167 4.9698C5.93648 4.96403 5.92269 4.95556 5.91108 4.94489L1.28046 0.701812C1.21083 0.637954 1.12816 0.587293 1.03718 0.552721C0.946193 0.51815 0.848671 0.500346 0.750179 0.500324C0.551266 0.500281 0.360481 0.572676 0.219796 0.701583C0.0791097 0.830489 4.69011e-05 1.00535 2.086e-08 1.18769C-4.68594e-05 1.37004 0.078926 1.54493 0.219546 1.6739L4.84967 5.91881C4.86131 5.92945 4.87054 5.9421 4.87684 5.95602C4.88314 5.96994 4.88639 5.98486 4.88639 5.99993C4.88639 6.015 4.88314 6.02993 4.87684 6.04385C4.87054 6.05777 4.86131 6.07041 4.84967 6.08106L0.219546 10.3264C0.149918 10.3903 0.0946926 10.4661 0.0570229 10.5495C0.0193532 10.6329 -2.31919e-05 10.7223 2.086e-08 10.8126C4.69011e-05 10.995 0.0791097 11.1698 0.219796 11.2987C0.289456 11.3626 0.372149 11.4132 0.463152 11.4477C0.554155 11.4823 0.651687 11.5 0.750179 11.5C0.949092 11.5 1.13984 11.4275 1.28046 11.2985L5.91108 7.05314C5.92269 7.04247 5.93648 7.03401 5.95167 7.02823C5.96685 7.02245 5.98313 7.01948 5.99957 7.01948C6.01601 7.01948 6.03229 7.02245 6.04748 7.02823C6.06266 7.03401 6.07646 7.04247 6.08807 7.05314L10.7187 11.2985C10.8593 11.4275 11.0501 11.5 11.249 11.5C11.4479 11.5 11.6387 11.4276 11.7794 11.2987C11.92 11.1698 11.9991 10.995 11.9991 10.8126C11.9992 10.6303 11.9202 10.4554 11.7796 10.3264L7.14948 6.08106Z" fill="white"/>
</svg>
