<svg width="14" height="14" viewBox="0 0 14 14" fill="none" xmlns="http://www.w3.org/2000/svg">
<path d="M8.34141 7.10316C8.32783 7.08961 8.31705 7.07352 8.3097 7.05581C8.30235 7.03809 8.29856 7.0191 8.29856 6.99991C8.29856 6.98073 8.30235 6.96174 8.3097 6.94402C8.31705 6.92631 8.32783 6.91021 8.34141 6.89667L13.7446 1.49405C13.9087 1.32976 14.0007 1.10702 14.0006 0.874833C14.0004 0.642649 13.908 0.42004 13.7437 0.255977C13.5794 0.0919136 13.3567 -0.000163866 13.1245 2.18929e-07C12.8923 0.000164304 12.6697 0.0925565 12.5057 0.256851L7.10304 5.65714C7.08949 5.67072 7.0734 5.68149 7.05568 5.68884C7.03797 5.69619 7.01897 5.69998 6.99979 5.69998C6.98061 5.69998 6.96162 5.69619 6.9439 5.68884C6.92619 5.68149 6.91009 5.67072 6.89655 5.65714L1.49393 0.256851C1.4127 0.175577 1.31625 0.1111 1.21009 0.0671C1.10394 0.0231001 0.990157 0.000439751 0.875245 0.000412668C0.64317 0.000357972 0.420579 0.0924969 0.256439 0.25656C0.0922985 0.420623 5.47203e-05 0.643171 2.43377e-08 0.875246C-5.46716e-05 1.10732 0.0920842 1.32991 0.256147 1.49405L5.65818 6.89667C5.67176 6.91021 5.68254 6.92631 5.68989 6.94402C5.69724 6.96174 5.70102 6.98073 5.70102 6.99991C5.70102 7.0191 5.69724 7.03809 5.68989 7.05581C5.68254 7.07352 5.67176 7.08961 5.65818 7.10316L0.256147 12.5064C0.174911 12.5876 0.110479 12.6841 0.0665295 12.7903C0.0225797 12.8965 -2.70583e-05 13.0103 2.43377e-08 13.1252C5.47203e-05 13.3572 0.0922985 13.5798 0.256439 13.7439C0.337713 13.8251 0.434192 13.8895 0.540367 13.9335C0.646542 13.9774 0.760334 14 0.875245 14C1.10732 13.9999 1.32987 13.9077 1.49393 13.7436L6.89655 8.34036C6.91009 8.32678 6.92619 8.31601 6.9439 8.30865C6.96162 8.3013 6.98061 8.29752 6.99979 8.29752C7.01897 8.29752 7.03797 8.3013 7.05568 8.30865C7.0734 8.31601 7.08949 8.32678 7.10304 8.34036L12.5057 13.7436C12.6697 13.9077 12.8923 13.9999 13.1243 14C13.3564 14.0001 13.579 13.9079 13.7431 13.7439C13.9073 13.5798 13.9995 13.3572 13.9996 13.1252C13.9996 12.8931 13.9075 12.6705 13.7434 12.5064L8.34141 7.10316Z" fill="black"/>
</svg>