<svg width="16" height="18" viewBox="0 0 16 18" fill="none" xmlns="http://www.w3.org/2000/svg">
<path d="M5.87194 8.73136C5.81917 8.73179 5.76771 8.74786 5.72408 8.77754C5.68045 8.80723 5.64661 8.84919 5.62684 8.89812C5.60707 8.94704 5.60226 9.00074 5.61303 9.0524C5.62379 9.10406 5.64963 9.15137 5.6873 9.18833C5.72496 9.2253 5.77274 9.25026 5.82459 9.26005C5.87645 9.26984 5.93004 9.26403 5.97859 9.24335C6.02714 9.22267 6.06846 9.18805 6.09733 9.14387C6.12619 9.0997 6.1413 9.04795 6.14074 8.99518C6.14083 8.96014 6.134 8.92542 6.12063 8.89302C6.10726 8.86063 6.08762 8.83119 6.06284 8.80641C6.03806 8.78163 6.00863 8.76199 5.97623 8.74862C5.94384 8.73526 5.90912 8.72842 5.87407 8.72852V8.72852" stroke="#00296B" stroke-width="1.25" stroke-linecap="round" stroke-linejoin="round"/>
<path d="M10.5996 2.5957H13.7996C14.0825 2.5957 14.3538 2.70808 14.5538 2.90812C14.7539 3.10816 14.8662 3.37947 14.8662 3.66236V14.329C14.8662 14.6119 14.7539 14.8832 14.5538 15.0832C14.3538 15.2832 14.0825 15.3956 13.7996 15.3956H10.5996" stroke="#00296B" stroke-width="1.25" stroke-linecap="round" stroke-linejoin="round"/>
<path d="M7.85791 16.9927L1.45795 16.0782C1.33085 16.0602 1.21452 15.9969 1.13038 15.9C1.04623 15.803 0.999932 15.6789 1 15.5506V3.11118C0.9999 2.98905 1.04172 2.87058 1.11847 2.77558C1.19523 2.68058 1.30226 2.6148 1.42169 2.58923L7.82165 1.00986C7.89943 0.99321 7.97996 0.99417 8.05733 1.01267C8.1347 1.03118 8.20695 1.06675 8.26879 1.1168C8.33063 1.16684 8.38049 1.23008 8.41472 1.30189C8.44895 1.37371 8.46668 1.45226 8.46662 1.53182V16.4651C8.46657 16.5414 8.45012 16.6169 8.41837 16.6864C8.38663 16.7558 8.34033 16.8177 8.28262 16.8677C8.2249 16.9177 8.15712 16.9548 8.08385 16.9764C8.01057 16.9979 7.93352 17.0035 7.85791 16.9927V16.9927Z" stroke="#00296B" stroke-width="1.25" stroke-linecap="round" stroke-linejoin="round"/>
</svg>
