<svg width="18" height="18" viewBox="0 0 18 18" fill="none" xmlns="http://www.w3.org/2000/svg">
<path d="M7.96605 2.19603C8.09662 2.34097 8.25619 2.45686 8.43442 2.53618C8.61265 2.61551 8.80555 2.6565 9.00063 2.6565C9.19572 2.6565 9.38862 2.61551 9.56685 2.53618C9.74507 2.45686 9.90465 2.34097 10.0352 2.19603L10.7083 1.45745C10.9013 1.24394 11.1555 1.09537 11.4362 1.03213C11.7169 0.968887 12.0104 0.994071 12.2762 1.10422C12.542 1.21438 12.7672 1.4041 12.921 1.64736C13.0747 1.89061 13.1493 2.17548 13.1347 2.46286L13.0842 3.45902C13.0744 3.65335 13.1054 3.84757 13.1753 4.02917C13.2452 4.21077 13.3523 4.37572 13.4898 4.51341C13.6272 4.65109 13.792 4.75845 13.9735 4.82857C14.155 4.89869 14.3492 4.93002 14.5436 4.92053L15.5397 4.87001C15.8269 4.85585 16.1115 4.93086 16.3544 5.08474C16.5973 5.23863 16.7866 5.46388 16.8965 5.7296C17.0064 5.99532 17.0314 6.28852 16.9681 6.56902C16.9048 6.84951 16.7563 7.10357 16.543 7.29637L15.8016 7.96522C15.6568 8.09598 15.5411 8.25565 15.4619 8.43392C15.3827 8.61219 15.3418 8.80509 15.3418 9.00016C15.3418 9.19523 15.3827 9.38814 15.4619 9.5664C15.5411 9.74467 15.6568 9.90434 15.8016 10.0351L16.543 10.704C16.7565 10.8969 16.9051 11.1511 16.9683 11.4318C17.0316 11.7126 17.0064 12.006 16.8962 12.2718C16.7861 12.5376 16.5963 12.7629 16.3531 12.9166C16.1098 13.0703 15.825 13.1449 15.5376 13.1303L14.5414 13.0798C14.3467 13.0698 14.152 13.1008 13.9699 13.1707C13.7879 13.2407 13.6226 13.3481 13.4847 13.486C13.3468 13.6239 13.2394 13.7892 13.1694 13.9712C13.0994 14.1533 13.0685 14.348 13.0785 14.5427L13.129 15.5389C13.1417 15.8248 13.0662 16.1077 12.9125 16.3492C12.7588 16.5907 12.5346 16.779 12.2702 16.8886C12.0058 16.9982 11.714 17.0237 11.4346 16.9618C11.1552 16.8998 10.9016 16.7533 10.7083 16.5422L10.0388 15.8014C9.90808 15.6567 9.74847 15.541 9.57026 15.4618C9.39205 15.3826 9.19921 15.3417 9.00419 15.3417C8.80918 15.3417 8.61633 15.3826 8.43812 15.4618C8.25991 15.541 8.1003 15.6567 7.96961 15.8014L7.2972 16.5422C7.10424 16.7543 6.85056 16.9017 6.57075 16.9644C6.29094 17.027 5.99861 17.0019 5.73361 16.8923C5.46862 16.7828 5.24386 16.5942 5.08997 16.3522C4.93608 16.1103 4.86055 15.8268 4.87368 15.5403L4.92491 14.5441C4.93493 14.3494 4.90395 14.1547 4.83398 13.9727C4.764 13.7906 4.65659 13.6253 4.51869 13.4874C4.3808 13.3495 4.21549 13.2421 4.03346 13.1722C3.85143 13.1022 3.65674 13.0712 3.46198 13.0812L2.46582 13.1317C2.17856 13.1467 1.8937 13.0724 1.65035 12.9191C1.407 12.7657 1.21709 12.5407 1.10669 12.2751C0.996293 12.0095 0.970821 11.7162 1.03377 11.4355C1.09672 11.1549 1.24501 10.9005 1.45828 10.7075L2.19899 10.0387C2.34375 9.9079 2.45947 9.74823 2.53868 9.56996C2.61788 9.39169 2.6588 9.19879 2.6588 9.00372C2.6588 8.80865 2.61788 8.61575 2.53868 8.43748C2.45947 8.25921 2.34375 8.09954 2.19899 7.96878L1.45828 7.29637C1.2457 7.10354 1.09787 6.84977 1.03498 6.56974C0.972093 6.28972 0.997221 5.9971 1.10693 5.7319C1.21664 5.46669 1.40558 5.24184 1.64792 5.08808C1.89025 4.93432 2.17417 4.85915 2.46084 4.87286L3.457 4.92337C3.65213 4.93363 3.84723 4.90273 4.02963 4.83268C4.21204 4.76263 4.37767 4.65499 4.51577 4.51676C4.65387 4.37853 4.76134 4.21279 4.83122 4.03032C4.90109 3.84784 4.9318 3.65271 4.92136 3.4576L4.87368 2.46072C4.86024 2.17416 4.93554 1.89043 5.08931 1.64824C5.24308 1.40606 5.46784 1.21721 5.7329 1.10748C5.99796 0.997755 6.29043 0.972481 6.57039 1.03511C6.85034 1.09775 7.10416 1.24523 7.2972 1.45745L7.96605 2.19603Z" stroke="#00296B" stroke-width="1.4" stroke-linecap="round" stroke-linejoin="round"/>
<path d="M5.79492 8.9998C5.79492 9.849 6.13227 10.6634 6.73275 11.2639C7.33323 11.8644 8.14766 12.2017 8.99687 12.2017C9.84607 12.2017 10.6605 11.8644 11.261 11.2639C11.8615 10.6634 12.1988 9.849 12.1988 8.9998C12.1988 8.15059 11.8615 7.33616 11.261 6.73568C10.6605 6.1352 9.84607 5.79785 8.99687 5.79785C8.14766 5.79785 7.33323 6.1352 6.73275 6.73568C6.13227 7.33616 5.79492 8.15059 5.79492 8.9998V8.9998Z" stroke="#00296B" stroke-width="1.4" stroke-linecap="round" stroke-linejoin="round"/>
</svg>
