<svg width="19" height="18" viewBox="0 0 19 18" fill="none" xmlns="http://www.w3.org/2000/svg">
<path d="M17.5408 0.21082C17.2982 0.0368806 16.9964 -0.0335603 16.7018 0.0149924C16.4073 0.0635451 16.1441 0.227115 15.9701 0.469721L5.43775 15.1543L1.92196 11.6355C1.81745 11.5309 1.69337 11.4479 1.5568 11.3913C1.42023 11.3347 1.27385 11.3056 1.12601 11.3055C0.978179 11.3055 0.831784 11.3346 0.695189 11.3911C0.558593 11.4477 0.434472 11.5306 0.329912 11.6351C0.225352 11.7396 0.1424 11.8637 0.0857941 12.0002C0.0291877 12.1368 3.48716e-05 12.2832 3.1265e-08 12.431C-3.4809e-05 12.5789 0.029049 12.7253 0.085591 12.8619C0.142133 12.9984 0.225026 13.1226 0.329537 13.2271L4.78337 17.6802C4.9003 17.7927 5.03983 17.8791 5.19269 17.9336C5.34555 17.9881 5.50824 18.0094 5.66998 17.9962C5.83172 17.983 5.9888 17.9356 6.1308 17.857C6.2728 17.7785 6.39648 17.6706 6.49362 17.5406L17.7997 1.78148C17.9736 1.53886 18.0441 1.23709 17.9955 0.942534C17.947 0.647981 17.7834 0.384778 17.5408 0.21082Z" fill="#00509D"/>
</svg>