<svg width="232" height="145" viewBox="0 0 232 145" fill="none" xmlns="http://www.w3.org/2000/svg">
<path d="M200.027 144.5C200.027 144.5 216.676 148.447 224.873 130.559C235.506 107.351 220.582 85.3064 194.838 83.7179C157.708 81.4284 178.286 22.1447 119.695 38.2326C103.219 42.755 67.3852 19.4082 46.2908 58.9672C42.704 65.6939 31.9815 65.3656 17.6954 76.8392C-7.50416 97.0823 1.56769 144.718 22.7956 144.931C44.0235 145.145 200.027 144.5 200.027 144.5Z" fill="#D9E9FE"/>
<path d="M26.5129 144.845C26.5129 144.845 27.2872 139.774 37.1621 138.409C47.037 137.044 56.2211 126.105 72.5074 127.69C88.7937 129.275 102.307 139.24 120.846 136.187C139.385 133.134 150.993 137.021 155.151 140.094C159.309 143.166 176.518 139.374 177.789 144.996L26.5129 144.845Z" fill="#3A4ACE"/>
<path d="M67.1082 24.0011C67.1082 24.0011 55.962 23.4605 61.8745 57.4269C61.8745 57.4269 65.8526 68.958 60.8313 76.3903H134.75V23.9974L67.1082 24.0011Z" fill="#AFCDFB"/>
<path d="M74.7005 112.321C74.7005 112.321 69.5363 106.293 74.3825 102.469C74.3825 102.469 77.9211 100.326 80.8078 100.5C80.8078 100.5 76.7183 107.362 78.0416 108.04C79.3649 108.718 82.0467 100.07 82.0467 100.07C82.0467 100.07 90.1013 99.2893 92.6931 100.534C92.6931 100.534 85.8069 106.169 87.2572 106.505C88.7075 106.84 96.1445 101.312 96.1445 101.312C96.1445 101.312 103.642 102.588 103.242 107.16C102.842 111.733 100.259 113.146 99.124 113.025C97.9889 112.903 91.3476 110.368 91.2029 111.298C91.0582 112.228 95.0559 115.269 97.8554 115.411C97.8554 115.411 92.5697 121.239 89.0571 119.557C85.5445 117.876 85.2449 115.208 83.0546 114.208C80.8643 113.207 78.9958 113.211 79.9018 114.23C80.8078 115.249 84.7692 116.242 86.022 118.457C87.2748 120.671 88.3978 122.166 84.7637 121.619C81.1295 121.072 75.2217 118.413 74.963 115.368L74.7005 112.321Z" fill="#3566C9"/>
<path d="M99.5574 107.283C99.5574 107.283 79.1965 106.497 74.7 112.321C74.7 112.321 73.7059 115.299 70.6458 118.011L70.1682 119.309C70.1682 119.309 73.692 115.589 74.9596 115.364C74.9596 115.366 72.9844 108.152 99.5574 107.283Z" fill="#3566C9"/>
<path d="M70.6455 118.011C70.6455 118.011 66.2751 121.243 65.9709 127.019L66.7647 127.089C66.7647 127.089 68.1557 121.118 70.6835 118.783C73.2114 116.448 70.6455 118.011 70.6455 118.011Z" fill="#3566C9"/>
<path d="M56.6448 104.744C56.6448 104.744 64.8599 100.144 61.0264 93.9007C61.0264 93.9007 57.9588 90.0672 54.6734 89.0787C54.6734 89.0787 56.426 98.3888 54.6734 98.6077C52.9208 98.8265 53.4688 88.0939 53.4688 88.0939C53.4688 88.0939 44.8161 83.9312 41.4203 84.2604C41.4203 84.2604 46.7876 93.348 45.0368 93.1319C43.286 92.9159 37.2595 83.7124 37.2595 83.7124C37.2595 83.7124 28.3879 82.0692 26.9664 87.3289C25.5448 92.5885 27.8427 95.211 29.1576 95.5439C30.4725 95.8768 38.9054 95.7627 38.6866 96.8579C38.4678 97.953 32.7722 99.7056 29.599 98.7199C29.599 98.7199 33.1042 107.373 37.7046 106.935C42.3049 106.497 43.7321 103.649 46.5761 103.43C49.4202 103.211 51.5057 103.978 50.0814 104.744C48.657 105.51 43.8378 104.995 41.5381 106.951C39.2383 108.906 37.3707 110.111 41.6364 110.987C45.902 111.864 53.5754 111.316 55.1083 108.03L56.6448 104.744Z" fill="#6D89D0"/>
<path d="M31.0142 88.972C31.0142 88.972 54.0114 96.4202 56.644 104.744C56.644 104.744 56.5346 108.468 58.8343 112.74V114.383C58.8343 114.383 56.4233 108.797 55.1102 108.03C55.1102 108.031 60.2587 100.798 31.0142 88.972Z" fill="#6D89D0"/>
<path d="M58.8351 112.74C58.8351 112.74 62.383 118.127 60.3606 124.684L59.4481 124.438C59.4481 124.438 60.3337 117.216 58.4781 113.588C56.6226 109.961 58.8351 112.74 58.8351 112.74Z" fill="#6D89D0"/>
<path d="M69.7144 98.4C69.7144 98.4 58.8844 92.3354 63.9391 84.1065C63.9391 84.1065 67.9813 79.0536 72.3127 77.7544C72.3127 77.7544 70.0028 90.0264 72.3127 90.3148C74.6226 90.6032 73.9012 76.4543 73.9012 76.4543C73.9012 76.4543 85.3071 70.9684 89.7832 71.4014C89.7832 71.4014 82.7088 83.385 85.0187 83.0957C87.3286 82.8064 95.2691 70.6791 95.2691 70.6791C95.2691 70.6791 106.964 68.5138 108.841 75.4436C110.718 82.3734 107.687 85.8396 105.954 86.2727C104.22 86.7057 93.102 86.5601 93.3923 88.0012C93.6825 89.4422 101.189 91.7549 105.376 90.4558C105.376 90.4558 100.756 101.862 94.6924 101.285C88.6287 100.708 86.7509 96.9534 82.9971 96.6641C79.2434 96.3748 76.5004 97.3865 78.3773 98.3972C80.2542 99.408 86.6062 98.7283 89.6385 101.305C92.6708 103.882 95.1254 105.472 89.4948 106.626C83.8642 107.781 73.7565 107.06 71.735 102.731L69.7144 98.4Z" fill="#3A4ACE"/>
<path d="M103.498 77.6088C103.498 77.6088 73.175 87.4262 69.7133 98.4C69.7133 98.4 69.8571 103.309 66.8257 108.94V111.105C66.8257 111.105 70.0017 103.742 71.7339 102.731C71.7339 102.731 64.9479 93.2015 103.498 77.6088Z" fill="#6D89D0"/>
<path d="M66.8255 108.94C66.8255 108.94 62.1491 116.04 64.8151 124.684L66.0206 124.36C66.0206 124.36 64.8531 114.84 67.2994 110.052C69.7456 105.263 66.8255 108.94 66.8255 108.94Z" fill="#6D89D0"/>
<path d="M69.3482 143.426C81.0629 143.426 90.5594 133.93 90.5594 122.215H48.137C48.137 133.93 57.6335 143.426 69.3482 143.426Z" fill="#FB7369"/>
<path d="M74.5692 143.269C73.6949 143.378 72.8147 143.432 71.9337 143.431C60.2191 143.426 50.7244 133.93 50.7244 122.219H55.9933C55.9924 133.038 64.098 141.97 74.5692 143.269Z" fill="#F2564B"/>
<path d="M90.853 144.506H47.8491C47.8491 143.812 48.1248 143.146 48.6156 142.655C49.1063 142.165 49.7719 141.889 50.466 141.889H88.2362C88.9302 141.889 89.5958 142.165 90.0866 142.655C90.5773 143.146 90.853 143.812 90.853 144.506Z" fill="#FB7369"/>
<path d="M91.0429 122.215H47.4399V122.866H91.0429V122.215Z" fill="#F2564B"/>
<path d="M146.104 41.5635C146.104 41.5635 142.388 34.553 147.959 31.8824C147.959 31.8824 151.882 30.5693 154.66 31.3724C154.66 31.3724 149.165 37.1653 150.302 38.1213C151.439 39.0774 155.959 31.2249 155.959 31.2249C155.959 31.2249 163.988 32.2311 166.243 34.0143C166.243 34.0143 158.289 38.0017 159.63 38.6462C160.971 39.2907 169.441 35.5286 169.441 35.5286C169.441 35.5286 176.474 38.419 175.081 42.7922C173.687 47.1653 170.857 47.9777 169.776 47.6095C168.696 47.2414 162.772 43.3105 162.427 44.1868C162.082 45.0631 165.315 48.9059 168.014 49.658C168.014 49.658 161.579 54.1841 158.521 51.7722C155.462 49.3603 155.756 46.6924 153.84 45.2365C151.923 43.7807 150.099 43.3727 150.756 44.5661C151.414 45.7596 155.064 47.5965 155.799 50.0317C156.534 52.4668 157.302 54.1721 153.877 52.8405C150.451 51.5089 145.272 47.6188 145.688 44.5874L146.104 41.5635Z" fill="#3566C9"/>
<path d="M171.46 42.104C171.46 42.104 151.767 36.8694 146.102 41.5634C146.102 41.5634 144.478 44.2526 140.898 46.2259L140.146 47.3887C140.146 47.3887 144.406 44.5336 145.687 44.592C145.69 44.592 145.347 37.1197 171.46 42.104Z" fill="#3566C9"/>
<path d="M140.9 46.2259C140.9 46.2259 135.927 48.4199 134.362 53.9875L135.121 54.2305C135.121 54.2305 137.798 48.7111 140.765 46.9863C143.733 45.2615 140.9 46.2259 140.9 46.2259Z" fill="#3566C9"/>
<path d="M121.639 28.9178C121.639 28.9178 110.634 23.1824 115.441 14.8023C115.441 14.8023 119.335 9.63068 123.622 8.20262C123.622 8.20262 121.675 20.5358 123.993 20.7584C126.311 20.9809 125.171 6.86174 125.171 6.86174C125.171 6.86174 136.408 1.03361 140.895 1.33313C140.895 1.33313 134.181 13.5217 136.481 13.1646C138.782 12.8076 146.358 0.448475 146.358 0.448475C146.358 0.448475 157.983 -2.06453 160.065 4.80682C162.148 11.6782 159.221 15.2316 157.501 15.7166C155.782 16.2016 144.666 16.387 144.998 17.8225C145.33 19.258 152.902 21.3463 157.053 19.9192C157.053 19.9192 152.774 31.4576 146.695 31.0608C140.617 30.6639 138.628 26.9676 134.868 26.7951C131.107 26.6227 128.395 27.7104 130.302 28.6646C132.208 29.6188 138.538 28.7508 141.645 31.2369C144.753 33.7231 147.253 35.2374 141.659 36.5597C136.066 37.882 125.941 37.461 123.792 33.1917L121.639 28.9178Z" fill="#3A4ACE"/>
<path d="M154.789 7.13062C154.789 7.13062 124.775 17.8466 121.638 28.9224C121.638 28.9224 121.928 33.825 119.065 39.5437L119.129 41.7081C119.129 41.7081 122.085 34.2534 123.787 33.1917C123.787 33.187 116.72 23.8639 154.789 7.13062Z" fill="#6D89D0"/>
<path d="M119.067 39.5391C119.067 39.5391 114.605 46.7721 117.527 55.3358L118.719 54.977C118.719 54.977 117.269 45.4952 119.572 40.6371C121.874 35.7789 119.067 39.5391 119.067 39.5391Z" fill="#6D89D0"/>
<path d="M148.969 44.1089H71.7954V144.753H148.969V44.1089Z" fill="#9ABCEF"/>
<path d="M150.194 44.1089H74.3176V144.753H150.194V44.1089Z" fill="#F8FBFF"/>
<path d="M203.696 144.507H188.407C187.587 143.812 188.973 142.234 190.422 142.127C191.051 142.08 191.846 142.212 192.756 142.405C192.966 139.611 194.167 127.048 198.696 127.553C203.788 128.118 198.696 133.085 197.257 136.026C196.19 138.205 195.066 141.328 194.552 142.802C194.965 142.895 195.393 142.979 195.83 143.06C196.505 140.989 199.016 134.018 202.21 134.424C205.959 134.9 204.452 137.695 201.794 139.353C199.847 140.573 197.451 142.307 196.313 143.144C197.3 143.316 198.301 143.396 199.303 143.384C201.922 143.32 203.201 144.091 203.696 144.507Z" fill="#3A4ACE"/>
<path d="M150.195 44.1071H74.3179C74.7371 38.3698 74.1056 34.2034 73.092 31.2073C71.1447 25.4459 67.7925 24.0002 67.7925 24.0002H139.351C145.458 24.0002 150.194 27.6798 151.483 32.5639C151.531 32.7494 151.576 32.9302 151.615 33.1129C152.839 38.7018 150.245 44.0051 150.195 44.1071Z" fill="#F8FBFF"/>
<path d="M150.195 44.1071H74.3179C74.7371 38.3698 74.1056 34.2034 73.092 31.2073C80.8462 32.627 100.051 35.6528 120.607 35.1428C133.903 34.8136 144.416 33.9243 151.615 33.1138C152.839 38.7018 150.245 44.005 150.195 44.1071Z" fill="#F8FBFF"/>
<path d="M130.871 65.4286H89.1946C89.1766 65.4286 89.1621 65.4432 89.1621 65.4611V67.2833C89.1621 67.3012 89.1766 67.3157 89.1946 67.3157H130.871C130.888 67.3157 130.903 67.3012 130.903 67.2833V65.4611C130.903 65.4432 130.888 65.4286 130.871 65.4286Z" fill="#BBD5FC"/>
<path d="M115.138 68.6038H89.1946C89.1766 68.6038 89.1621 68.6183 89.1621 68.6362V70.4584C89.1621 70.4763 89.1766 70.4908 89.1946 70.4908H115.138C115.156 70.4908 115.17 70.4763 115.17 70.4584V68.6362C115.17 68.6183 115.156 68.6038 115.138 68.6038Z" fill="#BBD5FC"/>
<path d="M85.2865 70.1857V66.3309H84.7774C84.4683 66.3309 84.3138 66.2023 84.3138 65.9452C84.3138 65.7597 84.4343 65.6289 84.6764 65.552C84.8689 65.4993 85.0667 65.4682 85.2661 65.4592C85.5363 65.4388 85.7527 65.4286 85.9153 65.4286C86.0748 65.4286 86.1749 65.4611 86.2157 65.5214C86.2565 65.5817 86.2778 65.7486 86.2778 66.011V70.1839H86.8018C87.1412 70.1839 87.3109 70.3304 87.3109 70.6234C87.3109 70.9325 87.1412 71.0871 86.8018 71.0871H84.6931C84.5594 71.0909 84.4284 71.0487 84.3221 70.9675C84.2723 70.9274 84.2328 70.876 84.2067 70.8177C84.1805 70.7593 84.1686 70.6956 84.1719 70.6318C84.1719 70.3338 84.3441 70.1848 84.6884 70.1848L85.2865 70.1857Z" fill="#BBD5FC"/>
<path d="M130.871 85.3055H89.1946C89.1766 85.3055 89.1621 85.32 89.1621 85.3379V87.1601C89.1621 87.178 89.1766 87.1926 89.1946 87.1926H130.871C130.888 87.1926 130.903 87.178 130.903 87.1601V85.3379C130.903 85.32 130.888 85.3055 130.871 85.3055Z" fill="#D2E4FD"/>
<path d="M115.138 88.4815H89.1946C89.1766 88.4815 89.1621 88.496 89.1621 88.514V90.3361C89.1621 90.354 89.1766 90.3686 89.1946 90.3686H115.138C115.156 90.3686 115.17 90.354 115.17 90.3361V88.514C115.17 88.496 115.156 88.4815 115.138 88.4815Z" fill="#D2E4FD"/>
<path d="M87.3941 89.9837C87.3941 90.2403 87.2145 90.3686 86.8553 90.3686H84.6205C84.2978 90.3686 84.1365 90.2397 84.1365 89.98C84.1473 89.8732 84.1929 89.7728 84.2663 89.6944C84.3936 89.5491 84.5791 89.3309 84.8227 89.0397C85.1936 88.5724 85.5049 88.1681 85.7565 87.8268C85.843 87.7137 85.9667 87.5412 86.1274 87.3094C86.2411 87.1336 86.309 86.9321 86.3249 86.7233C86.3276 86.6423 86.3138 86.5617 86.2845 86.4861C86.2552 86.4106 86.2109 86.3418 86.1543 86.2838C86.0976 86.2262 86.0296 86.1811 85.9546 86.1513C85.8796 86.1214 85.7992 86.1075 85.7185 86.1104C85.5535 86.1073 85.3933 86.1654 85.2687 86.2736C85.1608 86.3862 85.0894 86.5287 85.0638 86.6825C85.0309 86.8345 84.99 86.9846 84.9414 87.1323C84.9152 87.1988 84.8691 87.2555 84.8092 87.2945C84.7494 87.3336 84.6789 87.353 84.6075 87.3502C84.5461 87.3528 84.4848 87.3406 84.4291 87.3144C84.3734 87.2882 84.3249 87.249 84.2876 87.2C84.2111 87.1036 84.1722 86.9826 84.1782 86.8596C84.1789 86.6954 84.2042 86.5323 84.2533 86.3756C84.3466 86.0483 84.5513 85.764 84.832 85.5716C85.1183 85.3879 85.4535 85.2951 85.7936 85.3055C86.1741 85.2944 86.5444 85.4294 86.8284 85.6829C86.9686 85.81 87.0796 85.9659 87.154 86.1398C87.2284 86.3138 87.2645 86.5017 87.2596 86.6909C87.2485 87.027 87.1413 87.353 86.9509 87.6302C86.8371 87.8083 86.6031 88.1223 86.2489 88.5724C86.0671 88.8042 85.7809 89.1408 85.3902 89.5822H86.8618C87.2173 89.5841 87.3947 89.7179 87.3941 89.9837Z" fill="#D2E4FD"/>
<path d="M130.871 101.887H89.1946C89.1766 101.887 89.1621 101.901 89.1621 101.919V103.741C89.1621 103.759 89.1766 103.774 89.1946 103.774H130.871C130.888 103.774 130.903 103.759 130.903 103.741V101.919C130.903 101.901 130.888 101.887 130.871 101.887Z" fill="#D2E4FD"/>
<path d="M115.138 105.063H89.1946C89.1766 105.063 89.1621 105.077 89.1621 105.095V106.917C89.1621 106.935 89.1766 106.95 89.1946 106.95H115.138C115.156 106.95 115.17 106.935 115.17 106.917V105.095C115.17 105.077 115.156 105.063 115.138 105.063Z" fill="#D2E4FD"/>
<path d="M87.3947 105.369C87.403 105.588 87.3616 105.807 87.2734 106.008C87.1853 106.21 87.0527 106.389 86.8856 106.532C86.5657 106.81 86.1586 106.95 85.6672 106.95C85.322 106.96 84.9817 106.865 84.6916 106.678C84.2645 106.391 84.0509 106.045 84.0509 105.64C84.0487 105.53 84.0885 105.423 84.1621 105.341C84.1976 105.3 84.2415 105.268 84.2909 105.246C84.3403 105.225 84.3939 105.214 84.4477 105.216C84.5714 105.216 84.6851 105.297 84.789 105.46C84.9615 105.729 85.0607 105.878 85.0885 105.906C85.1644 105.986 85.2565 106.049 85.3587 106.091C85.4608 106.133 85.5707 106.152 85.6811 106.149C86.0056 106.149 86.2375 106.028 86.3775 105.787C86.4463 105.642 86.4782 105.483 86.4702 105.323C86.4702 104.868 86.2031 104.615 85.669 104.564C85.3676 104.536 85.2165 104.409 85.2165 104.181C85.2154 104.101 85.2406 104.023 85.2882 103.959C85.3357 103.895 85.4031 103.848 85.4798 103.826C85.8069 103.705 85.9729 103.643 85.9778 103.64C86.1521 103.524 86.2402 103.322 86.2402 103.035C86.2441 102.96 86.2325 102.885 86.2064 102.815C86.1802 102.745 86.14 102.681 86.0882 102.627C86.0332 102.576 85.9687 102.536 85.8983 102.511C85.8279 102.485 85.7531 102.474 85.6783 102.477C85.4987 102.467 85.3213 102.521 85.1785 102.63C85.0545 102.756 84.9659 102.912 84.9216 103.083C84.9047 103.154 84.8638 103.217 84.8056 103.262C84.7475 103.306 84.6758 103.329 84.6026 103.327C84.5477 103.328 84.4935 103.315 84.4449 103.29C84.3962 103.264 84.3548 103.227 84.3244 103.181C84.2547 103.089 84.217 102.976 84.2169 102.86C84.2188 102.709 84.2596 102.56 84.3355 102.428C84.4707 102.182 84.6804 101.984 84.9346 101.864C85.1851 101.739 85.4621 101.675 85.7423 101.679C86.1048 101.667 86.4579 101.796 86.728 102.038C86.8582 102.157 86.9608 102.303 87.0287 102.466C87.0966 102.63 87.1281 102.805 87.1212 102.982C87.1264 103.202 87.0754 103.419 86.973 103.614C86.8706 103.809 86.7202 103.974 86.536 104.095C87.1085 104.321 87.3947 104.746 87.3947 105.369Z" fill="#D2E4FD"/>
<path d="M99.6552 48.6008H126.207C126.217 48.6008 126.227 48.6048 126.234 48.612C126.241 48.6191 126.245 48.6288 126.245 48.6389V50.7568C126.245 50.7667 126.241 50.7761 126.234 50.783C126.227 50.79 126.218 50.7939 126.208 50.7939H99.6552C99.6502 50.7939 99.6453 50.7929 99.6407 50.791C99.636 50.7891 99.6319 50.7863 99.6283 50.7828C99.6248 50.7792 99.622 50.7751 99.6201 50.7704C99.6182 50.7658 99.6172 50.7609 99.6172 50.7559V48.6379C99.6174 48.628 99.6215 48.6186 99.6286 48.6116C99.6357 48.6047 99.6453 48.6008 99.6552 48.6008Z" fill="#BBD5FC"/>
<path d="M92.9424 51.9817H132.921C132.93 51.9817 132.94 51.9856 132.947 51.9926C132.954 51.9995 132.958 52.009 132.958 52.0188V54.1368C132.958 54.1468 132.954 54.1565 132.946 54.1637C132.939 54.1708 132.93 54.1748 132.92 54.1748H92.9424C92.9323 54.1748 92.9227 54.1708 92.9155 54.1637C92.9084 54.1565 92.9044 54.1468 92.9044 54.1368V52.0216C92.904 52.0164 92.9047 52.0112 92.9065 52.0063C92.9082 52.0014 92.911 51.9969 92.9145 51.9932C92.9181 51.9894 92.9225 51.9865 92.9273 51.9845C92.9321 51.9825 92.9372 51.9816 92.9424 51.9817Z" fill="#BBD5FC"/>
<path d="M109.991 77.4938C101.725 77.4938 93.8815 76.4562 88.0339 74.9734C82.126 73.4758 78.9463 71.0277 78.9463 68.8532C78.9463 66.8845 81.5428 65.0753 86.4464 63.6185C81.7449 65.0095 79.23 67.0635 79.23 68.8532C79.23 70.8385 82.4895 72.8035 88.173 74.2445C93.9993 75.7217 101.749 76.535 109.993 76.535C118.238 76.535 125.988 75.7217 131.815 74.2445C137.497 72.8035 140.757 70.8385 140.757 68.8532C140.757 66.75 137.326 64.1369 131.8 62.0337C125.518 59.6413 117.774 58.7539 109.993 58.7539C95.3884 58.7539 89.3757 60.4592 84.1587 62.5957C89.398 60.4499 95.3365 58.0176 109.993 58.0176C117.804 58.0176 125.582 59.3408 131.894 61.7444C137.535 63.893 141.041 66.6165 141.041 68.8532C141.041 71.024 137.787 73.0446 131.879 74.5422C126.028 76.0287 118.257 77.4938 109.991 77.4938Z" fill="#FB7369"/>
<path d="M160.185 96.8709C160.185 96.8709 159.913 99.5165 159.615 100.017C159.316 100.518 158.044 102.118 157.502 102.428C156.961 102.739 157.834 100.32 157.723 99.8494C157.613 99.3783 157.277 100.71 157.039 100.741C156.8 100.771 156.862 99.574 156.853 99.1382C156.845 98.7023 158.015 97.6257 158.43 96.6975C158.844 95.7693 160.185 96.8709 160.185 96.8709Z" fill="#FC9490"/>
<path d="M127.675 72.4651L127.066 71.318C127.066 71.318 127.368 69.2733 124.806 67.9797C124.806 67.9797 123.87 67.5986 123.341 68.3617C122.855 69.0656 124.269 68.9385 124.193 70.1422C124.117 71.3458 124.688 72.0515 125.484 72.4428L126.141 73.2041L127.675 72.4651Z" fill="#FC9490"/>
<path d="M151.887 69.7221C151.887 69.7221 149.687 80.5206 137.58 84.049C133.8 85.1506 125.213 72.7071 125.213 72.7071C125.213 72.7071 125.515 71.56 127.406 71.8234C127.406 71.8234 135.767 77.3585 136.819 77.9603C137.753 78.4935 143.896 71.0982 146.695 69.9094C149.495 68.7206 151.887 69.7221 151.887 69.7221Z" fill="#F2564B"/>
<path d="M119.667 67.5957L119.324 69.8312L130.567 71.5577L130.911 69.3222L119.667 67.5957Z" fill="#FB7369"/>
<path d="M116.884 68.3144L119.326 69.8333L119.669 67.5985L116.884 68.3144Z" fill="#FC9490"/>
<path d="M132.106 70.2673L131.998 70.974C131.966 71.1827 131.852 71.3703 131.682 71.4953C131.512 71.6203 131.299 71.6726 131.09 71.6407L130.57 71.56L130.914 69.3252L131.479 69.4124C131.676 69.4427 131.852 69.5499 131.97 69.7102C132.087 69.8705 132.136 70.0709 132.106 70.2673Z" fill="#FC9490"/>
<path d="M166.343 137.607C166.343 137.607 167.845 138.977 167.548 139.952C167.251 140.926 165.899 141.575 165.716 142.765C165.532 143.956 164.801 144.605 164.139 144.605H160.995C160.995 144.605 160.51 143.77 161.682 143.514C162.854 143.259 163.297 141.863 163.223 140.565C163.15 139.266 163.334 137.534 163.334 137.534L165.824 136.957L166.343 137.607Z" fill="#293EB7"/>
<path d="M147.915 141.152C147.915 141.152 148.185 144.271 147.526 144.596L139.087 144.579C139.087 144.579 139.087 143.604 140.443 143.388C141.799 143.172 144.18 142.378 144.583 140.606C144.985 138.834 147.915 141.152 147.915 141.152Z" fill="#293EB7"/>
<path d="M140.791 97.0888C140.791 97.0888 141.236 102.56 141.759 109.131C142.47 118.06 143.325 129.027 143.409 131.108C143.556 134.716 144.143 140.487 144.143 140.487C144.143 140.487 145.534 141.858 148.316 141.281C148.316 141.281 150.797 133.041 151.506 124.325L151.539 123.894C152.198 115.02 153.224 96.3349 153.224 96.3349L140.791 97.0888Z" fill="#3A4ACE"/>
<path d="M140.791 97.0888C140.791 97.0888 141.236 102.56 141.759 109.131L151.509 124.322L151.543 123.892C152.202 115.017 153.228 96.3321 153.228 96.3321L140.791 97.0888Z" fill="#293EB7"/>
<path d="M142.823 97.7379C142.823 97.7379 150.846 117.541 156.121 126.848C161.397 136.154 163.045 138.752 163.045 138.752C163.045 138.752 166.068 137.561 166.342 136.75C166.342 136.75 164.325 118.783 160.792 114.402C158.796 111.927 156.45 104.5 156.341 101.902C156.232 99.3051 155.627 94.165 155.627 94.165L142.823 97.7379Z" fill="#3A4ACE"/>
<path d="M153.377 67.2156C153.377 67.2156 147.949 69.8352 144.82 68.8634C145.415 68.1723 146.133 67.5975 146.938 67.1683C146.829 66.5405 146.746 65.9952 146.697 65.5325C146.622 64.979 146.578 64.4217 146.565 63.8633L148.659 62.2164L150.645 60.64C150.49 65.0707 153.377 67.2156 153.377 67.2156Z" fill="#FC9490"/>
<path d="M156.239 95.1776C156.251 95.5096 155.542 95.8889 155.228 96.0317C152.91 97.0517 150.739 97.762 148.284 97.9985C145.382 98.2952 141.952 97.6433 140.773 97.6665C140.652 97.6646 140.537 97.6184 140.448 97.5367C140.364 97.4773 140.303 93.9814 140.364 89.5841C140.364 89.4061 140.364 89.228 140.376 89.0509V88.9915C140.4 87.2732 140.459 85.4678 140.544 83.6697C140.712 79.711 141.026 75.8952 141.555 73.7856C142.193 71.2967 143.637 69.6488 144.949 68.4526L146.032 67.5077C147.115 67.721 148.258 67.6616 149.403 67.1052C150.655 66.5006 152 65.8487 152.219 66.0147C153.856 67.2109 154.963 69.902 155.558 73.3404C155.908 75.4953 156.073 77.6763 156.051 79.8594C156.051 80.7125 156.027 81.5898 155.979 82.4559C155.689 87.149 155.979 91.2254 156.147 93.5836C156.191 94.2651 156.227 94.7983 156.239 95.1776Z" fill="#FB7369"/>
<path d="M156.144 94.9624C137.134 94.9244 152.638 74.3354 152.638 74.3354L155.717 73.3348C155.971 75.6476 156.09 77.9732 156.074 80.2998C156.074 81.2114 156.057 82.148 156.021 83.0725C155.813 88.0864 156.021 92.4429 156.144 94.9624Z" fill="#F2564B"/>
<path d="M150.687 62.3323C150.687 62.3323 149.315 64.8361 146.7 65.5325C146.625 64.9789 146.582 64.4217 146.568 63.8633L148.662 62.2164L150.687 62.3323Z" fill="#F48484"/>
<path d="M145.612 63.7891C145.612 63.7891 150.79 64.6367 151.277 61.4533C151.764 58.2698 152.761 56.2344 149.473 55.5593C146.184 54.8842 145.357 56.0025 144.929 57.0272C144.5 58.0519 144.278 63.4868 145.612 63.7891Z" fill="#FC9490"/>
<path d="M153.158 55.1745C153.205 55.1207 153.314 55.0817 153.555 55.0632C153.417 54.9851 153.262 54.9415 153.104 54.9361C153.054 54.6014 152.875 54.0088 152.297 53.8633C152.392 53.9182 152.472 53.9937 152.533 54.0841C152.594 54.1745 152.633 54.2774 152.649 54.3853C151.979 53.6982 150.547 53.1984 146.578 53.5118C141.347 53.9245 143.072 57.273 143.749 57.6726C144.426 58.0723 146.13 56.9772 147.391 57.0773C148.652 57.1775 148.893 59.0005 149.321 59.2509C149.748 59.5013 149.58 59.058 150.155 58.7965C150.73 58.535 150.79 59.4939 150.619 60.1179C150.448 60.742 151.248 61.5655 151.248 61.5655L152.052 60.6994C152.856 59.8333 153.613 56.1658 153.248 55.3831C153.223 55.3182 153.191 55.2486 153.158 55.1745Z" fill="#2C3A64"/>
<path d="M152.217 65.9841C152.217 65.9841 155.494 67.5355 157.064 69.9215C159.501 73.6214 162.326 87.1054 162.378 88.3545C162.43 89.6036 160.316 98.4186 160.316 98.4186C160.316 98.4186 158.173 98.2776 157.62 97.1955C157.62 97.1955 158.048 88.1375 157.777 87.5515C157.505 86.9654 148.839 75.4037 149.813 72.9334C150.787 70.463 152.217 65.9841 152.217 65.9841Z" fill="#FB7369"/>
<path d="M127.056 71.2633C127.056 71.2633 127.234 70.5594 126.746 70.2432C126.259 69.927 125.809 69.0665 125.603 69.1833C125.176 69.4244 125.836 70.1746 125.715 71.1112C125.673 71.4394 126.437 72.2981 127.056 71.2633Z" fill="#FC9490"/>
<path d="M47.4399 137.916C47.4399 137.916 39.7432 118.208 34.3453 121.346C28.9475 124.484 47.4399 137.916 47.4399 137.916Z" fill="#3A4ACE"/>
<path d="M43.6342 137.916C43.6342 137.916 33.4662 129.129 28.8223 130.761C24.1783 132.393 43.6342 137.916 43.6342 137.916Z" fill="#3A4ACE"/>
<path d="M151.293 140.755C151.293 140.755 153.636 132.607 156.385 133.569C159.133 134.531 151.293 140.755 151.293 140.755Z" fill="#3A4ACE"/>
<path d="M153.432 140.31C153.432 140.31 159.413 136.383 160.728 137.597C162.043 138.811 153.432 140.31 153.432 140.31Z" fill="#3A4ACE"/>
<path d="M132.992 122.868H86.3331C86.1825 122.867 86.0382 122.807 85.9317 122.701C85.8252 122.594 85.7651 122.45 85.7646 122.3C85.7654 122.149 85.8255 122.005 85.932 121.899C86.0385 121.792 86.1826 121.732 86.3331 121.732H132.991C133.141 121.733 133.285 121.793 133.391 121.899C133.497 122.005 133.557 122.149 133.558 122.3C133.558 122.45 133.498 122.594 133.392 122.7C133.286 122.807 133.142 122.867 132.992 122.868Z" fill="#D2E4FD"/>
<path d="M132.992 125.139H86.3331C86.1825 125.138 86.0382 125.078 85.9317 124.972C85.8252 124.865 85.7651 124.721 85.7646 124.571C85.7654 124.42 85.8255 124.276 85.932 124.17C86.0385 124.063 86.1826 124.003 86.3331 124.003H132.991C133.141 124.004 133.285 124.064 133.391 124.17C133.497 124.276 133.557 124.42 133.558 124.571C133.558 124.721 133.498 124.865 133.392 124.971C133.286 125.078 133.142 125.138 132.992 125.139Z" fill="#D2E4FD"/>
<path d="M132.992 127.657H86.3331C86.1825 127.657 86.0382 127.597 85.9317 127.49C85.8252 127.384 85.7651 127.24 85.7646 127.089C85.7651 126.939 85.8252 126.794 85.9317 126.688C86.0383 126.582 86.1826 126.522 86.3331 126.522H132.991C133.141 126.522 133.285 126.582 133.391 126.688C133.498 126.795 133.558 126.939 133.558 127.089C133.558 127.239 133.498 127.383 133.392 127.49C133.286 127.596 133.142 127.657 132.992 127.657Z" fill="#D2E4FD"/>
<path d="M127.376 129.04H85.7844C85.7736 129.04 85.7649 129.049 85.7649 129.06V130.157C85.7649 130.167 85.7736 130.176 85.7844 130.176H127.376C127.387 130.176 127.395 130.167 127.395 130.157V129.06C127.395 129.049 127.387 129.04 127.376 129.04Z" fill="#D2E4FD"/>
<path d="M231.819 144.507H0.00834577C0.00373653 144.507 0 144.51 0 144.515V144.992C0 144.996 0.00373653 145 0.00834577 145H231.819C231.823 145 231.827 144.996 231.827 144.992V144.515C231.827 144.51 231.823 144.507 231.819 144.507Z" fill="#1C468A"/>
</svg>